<?xml version="1.0" encoding="UTF-8" standalone="no"?>
<!-- Created with Inkscape (http://www.inkscape.org/) -->

<svg
   xmlns:dc="http://purl.org/dc/elements/1.1/"
   xmlns:cc="http://creativecommons.org/ns#"
   xmlns:rdf="http://www.w3.org/1999/02/22-rdf-syntax-ns#"
   xmlns:svg="http://www.w3.org/2000/svg"
   xmlns="http://www.w3.org/2000/svg"
   xmlns:sodipodi="http://sodipodi.sourceforge.net/DTD/sodipodi-0.dtd"
   xmlns:inkscape="http://www.inkscape.org/namespaces/inkscape"
   width="210mm"
   height="297mm"
   id="svg3779"
   version="1.1"
   inkscape:version="0.48.4 r9939"
   sodipodi:docname="Falltür.svg"
   inkscape:export-filename="D:\Dokumente\Semester 4\MeDiDa\sausagepan\SausagePan-Prism\Assets\Sprites\Level 6\Falltür.png"
   inkscape:export-xdpi="90"
   inkscape:export-ydpi="90">
  <defs
     id="defs3781" />
  <sodipodi:namedview
     id="base"
     pagecolor="#ffffff"
     bordercolor="#666666"
     borderopacity="1.0"
     inkscape:pageopacity="0.0"
     inkscape:pageshadow="2"
     inkscape:zoom="7.9195959"
     inkscape:cx="467.54076"
     inkscape:cy="893.4007"
     inkscape:document-units="px"
     inkscape:current-layer="layer1"
     showgrid="false"
     inkscape:window-width="2560"
     inkscape:window-height="1377"
     inkscape:window-x="1912"
     inkscape:window-y="-8"
     inkscape:window-maximized="1" />
  <metadata
     id="metadata3784">
    <rdf:RDF>
      <cc:Work
         rdf:about="">
        <dc:format>image/svg+xml</dc:format>
        <dc:type
           rdf:resource="http://purl.org/dc/dcmitype/StillImage" />
        <dc:title></dc:title>
      </cc:Work>
    </rdf:RDF>
  </metadata>
  <g
     inkscape:label="Ebene 1"
     inkscape:groupmode="layer"
     id="layer1">
    <rect
       style="fill:#d4996d;fill-opacity:1;stroke:#000000;stroke-width:1.78770626;stroke-linecap:butt;stroke-linejoin:round;stroke-miterlimit:4;stroke-dasharray:none"
       id="rect3787"
       width="128.59177"
       height="29.908155"
       x="284.63889"
       y="166.15164" />
    <rect
       style="fill:#b3b3b3;fill-opacity:1;stroke:none;stroke-width:2;stroke-linecap:butt;stroke-linejoin:miter;stroke-miterlimit:4;stroke-dasharray:none"
       id="rect4351"
       width="15.833333"
       height="15.079365"
       x="403.5"
       y="150.28282" />
    <path
       style="fill:#ca8960;fill-opacity:1;stroke:#000000;stroke-width:0;stroke-linecap:butt;stroke-linejoin:round;stroke-miterlimit:4"
       d="m 285.49602,176.04667 c 27.69846,9.67891 83.04034,-7.36587 127.98266,4.14073 l -0.57798,2.79534 c -42.59788,1.30886 -84.60356,8.15168 -127.88632,3.06054 z"
       id="rect4345"
       inkscape:connector-curvature="0"
       sodipodi:nodetypes="ccccc" />
    <path
       style="fill:#c08559;fill-opacity:1;stroke:#000000;stroke-width:0;stroke-linecap:butt;stroke-linejoin:round;stroke-miterlimit:4"
       d="m 284.83986,171.35729 c 42.52559,-1.49797 85.5141,-0.40045 128.37827,0 l 0.13623,3.89647 c -36.87133,1.58096 -84.74031,2.55346 -128.5145,2.29143 z"
       id="rect3787-9"
       inkscape:connector-curvature="0"
       sodipodi:nodetypes="ccccc" />
    <path
       style="fill:#c99767;fill-opacity:1;stroke:#000000;stroke-width:0;stroke-linecap:butt;stroke-linejoin:round;stroke-miterlimit:4"
       d="m 284.68067,188.97933 c 42.78279,-0.32995 85.16631,-7.49778 128.40618,0 l 0,3.57435 c -43.48829,3.67257 -85.91384,1.65752 -128.40618,0 z"
       id="rect4348"
       inkscape:connector-curvature="0"
       sodipodi:nodetypes="ccccc" />
    <rect
       style="fill:none;stroke:#000000;stroke-width:1.78770626;stroke-linecap:butt;stroke-linejoin:round;stroke-miterlimit:4;stroke-dasharray:none"
       id="rect3787-1"
       width="128.59177"
       height="29.908155"
       x="284.64108"
       y="166.14246" />
    <path
       style="fill:#999999;stroke:none"
       d="m 409.74313,150.67477 c -0.38231,0.2572 -0.42271,0.25253 -0.75762,0.25253 -0.0421,0 -0.0965,-0.0298 -0.12627,0 -0.0298,0.0298 0.0298,0.0965 0,0.12627 -0.0421,0.0421 -0.21043,-0.0421 -0.25253,0 -0.0298,0.0298 0.0298,0.0965 0,0.12627 -0.0298,0.0298 -0.0965,-0.0298 -0.12627,0 -0.0298,0.0298 0.0298,0.0965 0,0.12627 -0.0595,0.0595 -0.19302,-0.0595 -0.25254,0 -0.0298,0.0298 0.0298,0.0965 0,0.12627 -0.0298,0.0298 -0.0965,-0.0298 -0.12627,0 -0.0298,0.0298 0.0298,0.0965 0,0.12627 -0.0595,0.0595 -0.19302,-0.0595 -0.25254,0 -0.0298,0.0298 0.0298,0.0965 0,0.12627 -0.0298,0.0298 -0.0965,-0.0298 -0.12627,0 -0.0298,0.0298 0.0298,0.0965 0,0.12627 -0.0298,0.0298 -0.0965,-0.0298 -0.12627,0 -0.0298,0.0298 0.0298,0.0965 0,0.12627 -0.0298,0.0298 -0.0965,-0.0298 -0.12627,0 -0.0595,0.0595 0.0595,0.19301 0,0.25253 -0.0298,0.0298 -0.0965,-0.0298 -0.12627,0 -0.0595,0.0595 0.0595,0.19302 0,0.25254 -0.0298,0.0298 -0.0965,-0.0298 -0.12626,0 -0.0298,0.0298 0.0298,0.0965 0,0.12627 -0.0298,0.0298 -0.0965,-0.0298 -0.12627,0 -0.0421,0.0421 0.0421,0.21048 0,0.25254 -0.0298,0.0298 -0.0965,-0.0298 -0.12627,0 -0.0595,0.0595 0.0595,0.19301 0,0.25254 -0.0298,0.0298 -0.0965,-0.0298 -0.12627,0 -0.0595,0.0595 0.0595,0.19301 0,0.25254 -0.0298,0.0298 -0.0965,-0.0298 -0.12627,0 -0.0631,0.0631 0.0631,0.31567 0,0.3788 -0.0298,0.0298 -0.0965,-0.0298 -0.12627,0 -0.0631,0.0631 0.0631,0.31568 0,0.37881 -0.0298,0.0298 -0.0965,-0.0298 -0.12627,0 -0.004,0.004 0,0.34818 0,0.37881 0,0.33671 0.0421,-0.0421 -0.12627,0.12627 -0.006,0.006 0,0.57181 0,0.63134 0,0.0595 0.006,0.62562 0,0.63135 -0.0298,0.0298 -0.0965,-0.0298 -0.12627,0 -0.0304,0.0304 0.0304,0.47469 0,0.50507 -0.0298,0.0298 -0.0965,-0.0298 -0.12627,0 -0.004,0.004 0,0.34819 0,0.37881 0,0.066 0.0166,0.47188 0,0.50508 -0.0266,0.0532 -0.0996,0.073 -0.12627,0.12627 -0.0192,0.0384 0,0.32194 0,0.3788 0,0.25254 0,0.50508 0,0.75762 0,0.50507 0,1.01015 0,1.51523 0,0.0878 -0.0228,0.58568 0,0.63134 0.0266,0.0532 0.0996,0.073 0.12627,0.12627 0.0166,0.0332 0,0.43905 0,0.50508 0,0.25254 0,0.50507 0,0.75761 0,0.0421 -0.0298,0.0965 0,0.12627 0.0298,0.0298 0.0965,-0.0298 0.12627,0 0.0391,0.0391 -0.0391,0.59225 0,0.63135 0.0298,0.0298 0.0965,-0.0298 0.12627,0 0.0298,0.0298 0,0.0842 0,0.12627 0,0.25253 0,0.50507 0,0.75761 0,0.0306 0.004,0.37475 0,0.37881 -0.0298,0.0298 -0.0965,-0.0298 -0.12627,0 -0.0298,0.0298 0.0421,0.12627 0,0.12627 -0.0421,0 0,-0.16836 0,-0.12627 0,0.0842 0,0.16836 0,0.25253 0,0.0421 0.0298,0.0965 0,0.12627 -0.0298,0.0298 -0.0965,-0.0298 -0.12627,0 -0.0595,0.0595 0.0595,0.19302 0,0.25254 -0.0298,0.0298 -0.0965,-0.0298 -0.12627,0 -0.0298,0.0298 0.0298,0.0965 0,0.12627 -0.0298,0.0298 -0.0965,-0.0298 -0.12626,0 -0.0298,0.0298 0,0.0842 0,0.12627 -0.0421,0 -0.0965,-0.0298 -0.12627,0 -0.0298,0.0298 0.0298,0.0965 0,0.12627 -0.0298,0.0298 -0.0965,-0.0298 -0.12627,0 -0.0298,0.0298 0.0298,0.0965 0,0.12627 -0.0298,0.0298 -0.0965,-0.0298 -0.12627,0 -0.0298,0.0298 0.0298,0.0965 0,0.12627 -0.006,0.006 -1.04532,0 -1.10486,0 -0.0421,0 -0.0842,0 -0.12627,0 -0.0421,0 -0.0965,0.0298 -0.12626,0 -0.0298,-0.0298 0.0298,-0.0965 0,-0.12627 -0.0595,-0.0595 -0.19302,0.0595 -0.25254,0 -0.0298,-0.0298 0.0188,-0.0886 0,-0.12627 -0.0266,-0.0532 -0.0996,-0.073 -0.12627,-0.12627 -0.0188,-0.0377 0.0298,-0.0965 0,-0.12627 -0.0298,-0.0298 -0.0965,0.0298 -0.12627,0 -0.0304,-0.0304 0.0304,-0.47469 0,-0.50508 -0.0298,-0.0298 -0.0965,0.0298 -0.12627,0 -0.004,-0.004 -0.22097,-0.34818 0,-0.3788 0.62538,-0.0867 0,-1.26269 0,-1.89404 0,-0.75761 -0.0631,-1.51523 -0.0631,-2.27284 0,-0.33672 0,-0.67344 0,-1.01015 0,-0.0421 0,-0.0842 0,-0.12627 0,-0.0421 -0.0298,-0.0965 0,-0.12627 0.0298,-0.0298 0.0965,0.0298 0.12627,0 0.0631,-0.0631 -0.0631,-0.31568 0,-0.37881 0.0298,-0.0298 0.0965,0.0298 0.12627,0 0.0298,-0.0298 0,-0.0842 0,-0.12627 0,-0.0421 0,-0.0842 0,-0.12627 0,-0.46298 0,-0.92597 0,-1.38896 0,-0.0421 0,-0.0842 0,-0.12627 0,-0.0421 -0.0298,-0.0965 0,-0.12627 0.0298,-0.0298 0.0965,0.0298 0.12627,0 0.004,-0.004 0,-0.34818 0,-0.3788 0,-0.37881 0,-0.75762 0,-1.13642 0,-0.0421 0,-0.0842 0,-0.12627 0,-0.0421 0.0298,-0.0965 0,-0.12627 -0.0298,-0.0298 -0.0965,0.0298 -0.12627,0 -0.0391,-0.0391 0.0391,-0.59225 0,-0.63135 -0.0298,-0.0298 -0.0965,0.0298 -0.12627,0 -0.0391,-0.0391 0.0391,-0.59224 0,-0.63134 -0.0298,-0.0298 -0.0965,0.0298 -0.12627,0 -0.0298,-0.0298 0,-0.0842 0,-0.12627 0,-0.21045 0,-0.4209 0,-0.63135 0,-0.0464 0.005,-0.49999 0,-0.50507 -0.0298,-0.0298 -0.0965,0.0298 -0.12627,0 -0.0298,-0.0298 0,-0.0842 0,-0.12627 0,-0.21045 0.53664,-0.4209 0.53664,-0.63135 0,-0.0421 0,-0.0842 0,-0.12627 0,-0.0421 -0.0298,-0.0965 0,-0.12627 0.0298,-0.0298 0.0965,0.0298 0.12627,0 0.0298,-0.0298 -0.0298,-0.0965 0,-0.12627 0.0298,-0.0298 0.0965,0.0298 0.12627,0 0.0298,-0.0298 -0.0298,-0.0965 0,-0.12626 0.0595,-0.0595 0.19301,0.0595 0.25254,0 0.0298,-0.0298 -0.0298,-0.0965 0,-0.12627 0.0298,-0.0298 0.0965,0.0298 0.12627,0 0.0298,-0.0298 -0.0298,-0.0965 0,-0.12627 0.0298,-0.0298 0.0842,0 0.12627,0 0,-0.0421 -0.0298,-0.0965 0,-0.12627 0.0298,-0.0298 0.0965,0.0298 0.12626,0 0.0298,-0.0298 -0.0298,-0.0965 0,-0.12627 0.0595,-0.0595 0.19302,0.0595 0.25254,0 0.0298,-0.0298 -0.0298,-0.0965 0,-0.12627 0.0631,-0.0631 0.31567,0.0631 0.37881,0 0.0298,-0.0298 -0.0298,-0.0965 0,-0.12627 0.006,-0.006 0.57181,0 0.63134,0 0.0464,0 0.5,0.005 0.50508,0 0.0298,-0.0298 -0.0298,-0.0965 0,-0.12627 0.006,-0.006 0.57181,0 0.63135,0 0.29462,0 0.58925,0 0.88388,0 0.0569,0 0.34038,-0.0192 0.37881,0 0.0532,0.0266 0.073,0.0997 0.12627,0.12627 0.0753,0.0377 0.19301,-0.0595 0.25253,0 0.0298,0.0298 -0.0298,0.0965 0,0.12627 0.0595,0.0595 0.19302,-0.0595 0.25254,0 0.0298,0.0298 -0.0298,0.0965 0,0.12627 0.0595,0.0595 0.19302,-0.0595 0.25254,0 0.0298,0.0298 0,0.0842 0,0.12627 0.16836,0.12627 0.33672,0.25254 0.50508,0.37881 z"
       id="path4353"
       inkscape:connector-curvature="0"
       sodipodi:nodetypes="csccsccccccccccccccccccccccccccccccsssccccsscsssccssccscssccssscccccccccccccsscccccccccsssssccccssssccsssccscscssccssscccccccccccccccccsccssccccccccc" />
    <rect
       style="fill:none;fill-opacity:1;stroke:#000000;stroke-width:1.5;stroke-linecap:butt;stroke-linejoin:miter;stroke-miterlimit:4;stroke-dasharray:none"
       id="rect4351-5"
       width="15.833333"
       height="15.079365"
       x="403.5"
       y="150.28282" />
  </g>
</svg>
