<?xml version="1.0" encoding="UTF-8" standalone="no"?>
<!-- Created with Inkscape (http://www.inkscape.org/) -->

<svg
   xmlns:dc="http://purl.org/dc/elements/1.1/"
   xmlns:cc="http://creativecommons.org/ns#"
   xmlns:rdf="http://www.w3.org/1999/02/22-rdf-syntax-ns#"
   xmlns:svg="http://www.w3.org/2000/svg"
   xmlns="http://www.w3.org/2000/svg"
   xmlns:sodipodi="http://sodipodi.sourceforge.net/DTD/sodipodi-0.dtd"
   xmlns:inkscape="http://www.inkscape.org/namespaces/inkscape"
   width="256"
   height="256"
   viewBox="0 0 256 256"
   id="svg2"
   version="1.1"
   inkscape:version="0.91 r13725"
   sodipodi:docname="character.svg"
   inkscape:export-filename="E:\Software\Entwicklung\Unity\SausagePan-Prism\Assets\Sprites\character.png"
   inkscape:export-xdpi="90"
   inkscape:export-ydpi="90">
  <defs
     id="defs4" />
  <sodipodi:namedview
     id="base"
     pagecolor="#353535"
     bordercolor="#666666"
     borderopacity="1.0"
     inkscape:pageopacity="0"
     inkscape:pageshadow="2"
     inkscape:zoom="1.4"
     inkscape:cx="-14.94782"
     inkscape:cy="163.71271"
     inkscape:document-units="px"
     inkscape:current-layer="layer1"
     showgrid="true"
     units="px"
     showguides="true"
     inkscape:guide-bbox="true"
     inkscape:window-width="1366"
     inkscape:window-height="745"
     inkscape:window-x="-8"
     inkscape:window-y="-8"
     inkscape:window-maximized="1">
    <inkscape:grid
       type="xygrid"
       id="grid3336"
       empspacing="4" />
    <sodipodi:guide
       position="24,128"
       orientation="0,1"
       id="guide3338" />
    <sodipodi:guide
       position="128,80"
       orientation="1,0"
       id="guide3340" />
  </sodipodi:namedview>
  <metadata
     id="metadata7">
    <rdf:RDF>
      <cc:Work
         rdf:about="">
        <dc:format>image/svg+xml</dc:format>
        <dc:type
           rdf:resource="http://purl.org/dc/dcmitype/StillImage" />
        <dc:title></dc:title>
      </cc:Work>
    </rdf:RDF>
  </metadata>
  <g
     inkscape:label="Ebene 1"
     inkscape:groupmode="layer"
     id="layer1"
     transform="translate(0,-796.36219)">
    <circle
       style="fill:#ffffff"
       id="path3342"
       cx="64"
       cy="860.36218"
       r="48" />
    <path
       id="path3351"
       d="m 140,924.36219 a 12,12 0 0 0 -12,12 12,12 0 0 0 12,12 12,12 0 0 0 12,-12 12,12 0 0 0 -12,-12 z m 0,8 a 4,4 0 0 1 4,4 4,4 0 0 1 -4,4 4,4 0 0 1 -4,-4 4,4 0 0 1 4,-4 z"
       style="fill:#eeeeec"
       inkscape:connector-curvature="0" />
    <rect
       style="fill:#ffffff"
       id="rect3355"
       width="80"
       height="88"
       x="152"
       y="820.36218"
       ry="32.000008" />
    <circle
       r="48"
       cy="988.36218"
       cx="64"
       id="circle3357"
       style="fill:#ffffff" />
    <rect
       style="fill:#ffffff"
       id="rect3365"
       width="56"
       height="32"
       x="160"
       y="948.36218"
       ry="16" />
    <rect
       style="fill:#ffffff"
       id="rect3367"
       width="56"
       height="32"
       x="160"
       y="996.36218"
       ry="16" />
  </g>
</svg>
