<?xml version="1.0" encoding="UTF-8" standalone="no"?>
<!-- Created with Inkscape (http://www.inkscape.org/) -->

<svg
   xmlns:dc="http://purl.org/dc/elements/1.1/"
   xmlns:cc="http://creativecommons.org/ns#"
   xmlns:rdf="http://www.w3.org/1999/02/22-rdf-syntax-ns#"
   xmlns:svg="http://www.w3.org/2000/svg"
   xmlns="http://www.w3.org/2000/svg"
   xmlns:sodipodi="http://sodipodi.sourceforge.net/DTD/sodipodi-0.dtd"
   xmlns:inkscape="http://www.inkscape.org/namespaces/inkscape"
   width="2048"
   height="2048"
   viewBox="0 0 2048 2048"
   id="svg2"
   version="1.1"
   inkscape:version="0.91 r13725"
   sodipodi:docname="level1.svg"
   inkscape:export-filename="E:\Software\Entwicklung\Unity\SausagePan-Prism\Assets\Sprites\level1.png"
   inkscape:export-xdpi="90"
   inkscape:export-ydpi="90">
  <defs
     id="defs4" />
  <sodipodi:namedview
     id="base"
     pagecolor="#ffffff"
     bordercolor="#666666"
     borderopacity="1.0"
     inkscape:pageopacity="0.0"
     inkscape:pageshadow="2"
     inkscape:zoom="0.49497475"
     inkscape:cx="1612.181"
     inkscape:cy="1777.7656"
     inkscape:document-units="px"
     inkscape:current-layer="layer1"
     showgrid="true"
     units="px"
     inkscape:window-width="1366"
     inkscape:window-height="745"
     inkscape:window-x="-8"
     inkscape:window-y="-8"
     inkscape:window-maximized="1">
    <inkscape:grid
       type="xygrid"
       id="grid3336"
       empspacing="4" />
  </sodipodi:namedview>
  <metadata
     id="metadata7">
    <rdf:RDF>
      <cc:Work
         rdf:about="">
        <dc:format>image/svg+xml</dc:format>
        <dc:type
           rdf:resource="http://purl.org/dc/dcmitype/StillImage" />
        <dc:title />
      </cc:Work>
    </rdf:RDF>
  </metadata>
  <g
     inkscape:label="Ebene 1"
     inkscape:groupmode="layer"
     id="layer1"
     transform="translate(0,995.63784)">
    <rect
       style="fill:#000000"
       id="rect3340"
       width="512"
       height="128"
       x="0"
       y="-995.63782"
       ry="31.999977"
       rx="32" />
    <rect
       style="fill:#000000"
       id="rect3342"
       width="128"
       height="128"
       x="0"
       y="-851.63782"
       rx="16"
       ry="15.999977" />
    <path
       style="fill:#000000;fill-rule:evenodd;stroke:none;stroke-width:1px;stroke-linecap:butt;stroke-linejoin:miter;stroke-opacity:1"
       d="M 213.40625 1741.041 C 145.53889 1741.2608 74.75 1747 0 1760 L 0 2048 L 2048 2048 L 2048 1824 C 1956.8018 1860.4793 1871.0962 1888.2867 1790.0215 1908.8652 C 1791.3 1912.3301 1792 1916.0803 1792 1920 L 1792 1984 C 1792 2001.728 1777.728 2016 1760 2016 L 1184 2016 C 1166.272 2016 1152 2001.728 1152 1984 L 1152 1935.4141 C 824.4125 1879.5688 556.16637 1739.931 213.40625 1741.041 z "
       transform="translate(0,-995.63784)"
       id="path3346" />
    <path
       style="fill:#000000;fill-rule:evenodd;stroke:none;stroke-width:1px;stroke-linecap:butt;stroke-linejoin:miter;stroke-opacity:1"
       d="m 832,892.36216 c 58.80192,-34.85777 73.63995,-103.90967 64,-192 l 64,0 c -28.29115,148.63978 0.55647,204.42907 32,256 z"
       id="path3351"
       inkscape:connector-curvature="0"
       sodipodi:nodetypes="ccccc" />
    <ellipse
       style="fill:#000000;stroke:none"
       id="path3353"
       cx="864"
       cy="668.36218"
       rx="96"
       ry="64" />
    <ellipse
       style="fill:#000000;stroke:none"
       id="path3355"
       cx="832"
       cy="620.36218"
       rx="96"
       ry="48" />
    <ellipse
       style="fill:#000000;stroke:none"
       id="path3357"
       cx="1040"
       cy="652.36218"
       rx="112"
       ry="80" />
    <ellipse
       style="fill:#000000;stroke:none"
       id="path3359"
       cx="960"
       cy="716.36218"
       rx="96"
       ry="48" />
    <ellipse
       style="fill:#000000;stroke:none"
       id="path3361"
       cx="992"
       cy="572.36218"
       rx="160"
       ry="32" />
    <ellipse
       style="fill:#000000;stroke:none"
       id="path3363"
       cx="896"
       cy="620.36218"
       rx="160"
       ry="48" />
    <ellipse
       style="fill:#000000;stroke:none"
       id="path3365"
       cx="784"
       cy="620.36218"
       rx="144"
       ry="48" />
    <ellipse
       style="fill:#000000;stroke:none"
       id="path3367"
       cx="800"
       cy="588.36218"
       rx="128"
       ry="48" />
    <ellipse
       style="fill:#000000;stroke:none"
       id="path3369"
       cx="1120"
       cy="636.36218"
       rx="96"
       ry="64" />
    <path
       style="fill:#000000;stroke:none"
       d="M 315.23047,254.47936 C 219.1531,254.72226 117.92415,264.94536 0,307.51646 l 0,224.8457 2048,0 0,-272 c -266.3138,-11.8587 -304.0197,115.8133 -464,128 -364.1129,27.7367 -710.35695,-67.204 -1088,-128 -60.1684,-2.1321 -119.42064,-6.038 -180.76953,-5.8828 z"
       id="rect3351"
       inkscape:connector-curvature="0" />
    <path
       style="fill:#babdb6;stroke:none"
       d="M 1152 512 A 32 32 0 0 0 1120 544 A 32 32 0 0 0 1120.4746 549.48047 A 96 96 0 0 0 1080.1992 576.41016 A 112 112 0 0 0 1072 576 A 112 112 0 0 0 1020.8398 588.39062 A 64 64 0 0 0 960 544 A 64 64 0 0 0 904.37109 576.43945 A 80 80 0 0 0 840.79492 619.71484 A 144 144 0 0 0 784 608 A 144 144 0 0 0 640.78711 737.16602 A 112 112 0 0 0 544.39062 840.44336 A 64 64 0 0 0 512 896 A 64 64 0 0 0 544.38867 951.59766 A 112 112 0 0 0 578.01562 1024 L 862.75586 1024 A 112 112 0 0 0 862.57227 1022.6172 A 80 80 0 0 0 914.23438 988.83398 A 144 144 0 0 0 944 992 A 144 144 0 0 0 1067.4824 921.75 A 112 112 0 0 0 1104 928 A 112 112 0 0 0 1156.3223 914.94336 A 80 80 0 0 0 1200 928 A 80 80 0 0 0 1263.8809 895.99414 A 112 112 0 0 0 1264 896 A 112 112 0 0 0 1291.3457 892.50586 A 64 64 0 0 0 1312 896 A 64 64 0 0 0 1320.3164 895.38867 A 64 64 0 0 0 1376 928 A 64 64 0 0 0 1433.1562 892.63086 A 80 80 0 0 0 1456 896 A 80 80 0 0 0 1536 816 A 80 80 0 0 0 1471.9434 737.60742 A 96 96 0 0 0 1472 736 A 96 96 0 0 0 1376 640 A 96 96 0 0 0 1374.3105 640.06055 A 80 80 0 0 0 1296 576 A 80 80 0 0 0 1239.0879 599.875 A 96 96 0 0 0 1183.5098 549.37891 A 32 32 0 0 0 1184 544 A 32 32 0 0 0 1152 512 z "
       transform="translate(0,-995.63784)"
       id="rect3365" />
    <path
       style="fill:#555753;stroke:none"
       d="M 272 544 A 176 16 0 0 0 96 560 A 176 16 0 0 0 111.70508 566.55859 C 101.64206 787.79826 63.375136 881.40594 0 1024 L 512 1024 L 512 928 C 464.62068 833.24136 439.14395 734.26624 432.27344 566.57617 A 176 16 0 0 0 448 560 A 176 16 0 0 0 272 544 z "
       transform="translate(0,-995.63784)"
       id="path3368" />
    <path
       style="fill:#2e3436;fill-rule:evenodd;stroke:none;stroke-width:1px;stroke-linecap:butt;stroke-linejoin:miter;stroke-opacity:1"
       d="M 1728 512 A 128 96 0 0 0 1600 608 A 128 96 0 0 0 1600.3008 614.37109 A 64 48 0 0 0 1568 656 A 64 48 0 0 0 1575.6191 678.63086 A 80 48 0 0 0 1536 720 A 80 48 0 0 0 1602.1406 767.22656 A 112 80 0 0 0 1712 832 A 112 80 0 0 0 1756.7578 825.22852 C 1754.336 899.41069 1753.5503 974.31938 1696 1024 L 1877.0977 1024 C 1799.1121 1020.2311 1801.0273 931.86067 1814.6934 831.04883 A 64 80 0 0 0 1824 832 A 64 80 0 0 0 1872.0176 804.78711 A 64 80 0 0 0 1920 832 A 64 80 0 0 0 1971.1426 799.93359 A 80 48 0 0 0 2048 752 A 80 48 0 0 0 2009.998 711.2168 A 48 48 0 0 0 2016 688 A 48 48 0 0 0 1975.0059 640.57422 A 64 64 0 0 0 1976.0059 638.94336 A 32 32 0 0 0 1984 640 A 32 32 0 0 0 2016 608 A 32 32 0 0 0 1984 576 A 32 32 0 0 0 1975.9375 577.05469 A 64 64 0 0 0 1951.1094 552.0957 A 64 48 0 0 0 1888 512 A 64 48 0 0 0 1826.5137 546.83008 A 128 96 0 0 0 1728 512 z M 1877.0977 1024 C 1880.573 1024.168 1884.2013 1024.1744 1888 1024 L 1877.0977 1024 z "
       transform="translate(0,-995.63784)"
       id="path3423" />
    <rect
       style="fill:#888a85;stroke:none"
       id="rect3458"
       width="704"
       height="96"
       x="1344"
       y="-963.63782" />
    <path
       style="fill:#d3d7cf;fill-rule:evenodd;stroke:none;stroke-width:1px;stroke-linecap:butt;stroke-linejoin:miter;stroke-opacity:1"
       d="M 1488 0 C 1451.2179 26.37178 1392.7207 22.34227 1344 32 C 1409.2163 39.29758 1478.1653 68.99205 1536 32 C 1518.8961 25.19693 1500.0648 24.43999 1488 0 z M 1754 0 C 1717.2179 26.37178 1658.7207 22.34227 1610 32 C 1675.2163 39.29758 1744.1653 68.99205 1802 32 C 1784.8961 25.19693 1766.0648 24.43999 1754 0 z M 2000 0 C 1963.2179 26.37178 1904.7207 22.34227 1856 32 C 1921.2163 39.29758 1990.1653 68.99205 2048 32 C 2030.8961 25.19693 2012.0648 24.43999 2000 0 z "
       transform="translate(0,-995.63784)"
       id="path3460" />
    <path
       style="fill:#888a85;fill-rule:evenodd;stroke:none;stroke-width:1px;stroke-linecap:butt;stroke-linejoin:miter;stroke-opacity:1"
       d="M 1604 0 C 1567.2179 26.37178 1508.7207 22.34227 1460 32 C 1525.2163 39.29758 1594.1653 68.99205 1652 32 C 1634.8961 25.19693 1616.0648 24.43999 1604 0 z M 1896 0 C 1859.2179 26.37178 1800.7207 22.34227 1752 32 C 1817.2163 39.29758 1886.1653 68.99205 1944 32 C 1926.8961 25.19693 1908.0648 24.43999 1896 0 z "
       transform="translate(0,-995.63784)"
       id="path3462" />
    <g
       id="g3463">
      <path
         id="rect3369"
         transform="translate(0,-995.63784)"
         d="M 1226.8574 0 C 1132.2025 0 1056 57.088013 1056 128 L 1056 256 L 1224 256 L 1224 128 C 1224 79.643499 1259.4418 37.72177 1312 15.941406 L 1312 0 L 1226.8574 0 z "
         style="fill:#888a85;stroke:none" />
      <path
         id="path3377"
         transform="translate(0,-995.63784)"
         d="M 1242.8574 0 C 1148.2025 0 1072 57.08801 1072 128 L 1072 256 L 1092 256 L 1092 128 C 1092 57.08801 1168.2025 0 1262.8574 0 L 1242.8574 0 z M 1280.8574 0 C 1186.2025 0 1110 57.08801 1110 128 L 1110 256 L 1120 256 L 1120 128 C 1120 57.08801 1196.2025 0 1290.8574 0 L 1280.8574 0 z M 1312 0.16796875 C 1221.4935 3.5981448 1150 59.313926 1150 128 L 1150 256 L 1160 256 L 1160 128 C 1160 61.865053 1226.2847 7.7637362 1312 0.7734375 L 1312 0.16796875 z M 1312 1.1328125 C 1228.2309 9.4535196 1164 62.897267 1164 128 L 1164 256 L 1174 256 L 1174 128 C 1174 65.513789 1233.1745 13.77169 1312 2.3554688 L 1312 1.1328125 z M 1312 6.2050781 C 1243.3757 22.808745 1194 70.922243 1194 128 L 1194 256 L 1218 256 L 1218 128 C 1218 127.01932 1218.0198 126.04169 1218.0488 125.06641 C 1218.0577 124.7685 1218.0685 124.47121 1218.0801 124.17383 C 1218.1087 123.43681 1218.1464 122.70252 1218.1914 121.96875 C 1218.2076 121.70504 1218.22 121.44101 1218.2383 121.17773 C 1218.3042 120.22861 1218.3854 119.28131 1218.4785 118.33789 C 1218.502 118.1005 1218.5295 117.86397 1218.5547 117.62695 C 1218.6354 116.86638 1218.7241 116.10825 1218.8223 115.35156 C 1218.855 115.09951 1218.8872 114.84731 1218.9219 114.5957 C 1219.0547 113.63102 1219.1983 112.66901 1219.3594 111.71094 C 1219.3764 111.60984 1219.3948 111.50923 1219.4121 111.4082 C 1219.5574 110.56021 1219.7157 109.71566 1219.8828 108.87305 C 1219.9397 108.58631 1219.9992 108.29977 1220.0586 108.01367 C 1220.2255 107.20998 1220.4013 106.40794 1220.5879 105.60938 C 1220.6201 105.47136 1220.6508 105.33316 1220.6836 105.19531 C 1220.9051 104.26522 1221.1407 103.33891 1221.3887 102.41602 C 1221.4565 102.16363 1221.5279 101.91199 1221.5977 101.66016 C 1221.7966 100.94214 1222.0038 100.22715 1222.2188 99.513672 C 1222.2937 99.264341 1222.3663 99.014393 1222.4434 98.765625 C 1222.7217 97.866414 1223.013 96.969841 1223.3164 96.078125 C 1223.377 95.899992 1223.4403 95.722751 1223.502 95.544922 C 1223.7693 94.773127 1224.0461 94.004257 1224.332 93.238281 C 1224.4172 93.010156 1224.503 92.782288 1224.5898 92.554688 C 1224.8884 91.771567 1225.1958 90.991659 1225.5137 90.214844 C 1225.5743 90.066656 1225.632 89.917486 1225.6934 89.769531 C 1226.0234 88.97323 1226.3706 88.182038 1226.7207 87.392578 C 1227.2894 86.110202 1227.8812 84.834061 1228.502 83.570312 C 1228.5751 83.421352 1228.6527 83.273697 1228.7266 83.125 C 1229.2869 81.997269 1229.8696 80.877867 1230.4707 79.765625 C 1230.611 79.505985 1230.752 79.247061 1230.8945 78.988281 C 1232.2762 76.479781 1233.7578 74.012248 1235.3418 71.587891 C 1235.483 71.371703 1235.6267 71.1569 1235.7695 70.941406 C 1236.493 69.849885 1237.2346 68.76674 1237.998 67.693359 C 1238.0927 67.560287 1238.1841 67.425758 1238.2793 67.292969 C 1239.1476 66.082509 1240.0407 64.883738 1240.959 63.697266 C 1241.0532 63.575448 1241.1513 63.455545 1241.2461 63.333984 C 1242.0822 62.261884 1242.9403 61.200194 1243.8164 60.148438 C 1243.9529 59.984575 1244.0872 59.819611 1244.2246 59.65625 C 1246.1763 57.336834 1248.2261 55.0684 1250.3672 52.853516 C 1250.5117 52.703993 1250.6574 52.555281 1250.8027 52.40625 C 1252.9923 50.161808 1255.2724 47.971226 1257.6484 45.841797 C 1257.7143 45.782762 1257.7817 45.72496 1257.8477 45.666016 C 1258.9933 44.643001 1260.1604 43.633889 1261.3477 42.638672 C 1261.4327 42.567398 1261.5163 42.494957 1261.6016 42.423828 C 1264.0922 40.345437 1266.6759 38.330375 1269.3418 36.378906 C 1269.4643 36.289222 1269.5861 36.198784 1269.709 36.109375 C 1272.3824 34.164166 1275.1393 32.283954 1277.9785 30.472656 C 1278.083 30.405967 1278.1882 30.33994 1278.293 30.273438 C 1282.614 27.530217 1287.1203 24.945518 1291.7969 22.53125 C 1291.8719 22.492497 1291.9463 22.452727 1292.0215 22.414062 C 1295.1469 20.80612 1298.3491 19.274721 1301.6211 17.822266 C 1301.7076 17.783861 1301.7942 17.745324 1301.8809 17.707031 C 1305.1842 16.246554 1308.5574 14.865333 1312 13.570312 L 1312 6.2050781 z "
         style="fill:#d3d7cf;stroke:none" />
    </g>
    <path
       style="fill:#555753;stroke:none"
       d="M 48 288 L 48 416 L 208 416 A 48 64 0 0 0 256 352 A 48 64 0 0 0 208 288 L 48 288 z "
       transform="translate(0,-995.63784)"
       id="path3455" />
    <ellipse
       style="fill:#888a85;stroke:none"
       id="path3453"
       cx="48"
       cy="-643.63782"
       rx="48"
       ry="64" />
    <ellipse
       style="fill:#2e3436;stroke:none"
       id="path3461"
       cx="48"
       cy="-643.63782"
       rx="32"
       ry="48" />
    <path
       style="fill:#888a85;stroke:none"
       d="M 320 288 A 48 64 0 0 0 272 352 L 288 352 A 32 48 0 0 1 320 304 A 32 48 0 0 1 352 352 A 32 48 0 0 1 343.89258 383.85742 L 353.91992 397.22656 A 48 64 0 0 0 368 352 A 48 64 0 0 0 320 288 z "
       transform="translate(0,-995.63784)"
       id="ellipse3473" />
    <path
       style="fill:#2e3436;stroke:none"
       d="M 735.98242 305.375 C 613.23193 306.37973 524.49287 432.92692 448 512 L 960 512 L 960 432 C 873.90994 338.76775 800.2803 304.84871 735.98242 305.375 z "
       transform="translate(0,-995.63784)"
       id="rect3364" />
    <circle
       style="fill:#ff00ff;stroke:none"
       id="path3392"
       cx="1968"
       cy="-787.63782"
       r="16" />
  </g>
</svg>
