<?xml version="1.0" encoding="UTF-8" standalone="no"?>
<!-- Created with Inkscape (http://www.inkscape.org/) -->

<svg
   xmlns:dc="http://purl.org/dc/elements/1.1/"
   xmlns:cc="http://creativecommons.org/ns#"
   xmlns:rdf="http://www.w3.org/1999/02/22-rdf-syntax-ns#"
   xmlns:svg="http://www.w3.org/2000/svg"
   xmlns="http://www.w3.org/2000/svg"
   xmlns:sodipodi="http://sodipodi.sourceforge.net/DTD/sodipodi-0.dtd"
   xmlns:inkscape="http://www.inkscape.org/namespaces/inkscape"
   width="210mm"
   height="297mm"
   viewBox="0 0 744.09448819 1052.3622047"
   id="svg2"
   version="1.1"
   inkscape:version="0.91 r13725"
   sodipodi:docname="Prisma_Logo.svg"
   inkscape:export-filename="prisma_logo.png"
   inkscape:export-xdpi="95.690269"
   inkscape:export-ydpi="95.690269">
  <defs
     id="defs4">
    <filter
       inkscape:collect="always"
       style="color-interpolation-filters:sRGB"
       id="filter4354"
       x="-0.054347166"
       width="1.1086943"
       y="-0.18486679"
       height="1.3697336">
      <feGaussianBlur
         inkscape:collect="always"
         stdDeviation="10.085107"
         id="feGaussianBlur4356" />
    </filter>
  </defs>
  <sodipodi:namedview
     id="base"
     pagecolor="#7e7e7e"
     bordercolor="#666666"
     borderopacity="1.0"
     inkscape:pageopacity="0"
     inkscape:pageshadow="2"
     inkscape:zoom="0.98994949"
     inkscape:cx="-334.97378"
     inkscape:cy="442.30596"
     inkscape:document-units="px"
     inkscape:current-layer="layer1"
     showgrid="false"
     inkscape:window-width="1366"
     inkscape:window-height="745"
     inkscape:window-x="-8"
     inkscape:window-y="-8"
     inkscape:window-maximized="1" />
  <metadata
     id="metadata7">
    <rdf:RDF>
      <cc:Work
         rdf:about="">
        <dc:format>image/svg+xml</dc:format>
        <dc:type
           rdf:resource="http://purl.org/dc/dcmitype/StillImage" />
        <dc:title></dc:title>
      </cc:Work>
    </rdf:RDF>
  </metadata>
  <g
     inkscape:label="Ebene 1"
     inkscape:groupmode="layer"
     id="layer1">
    <path
       style="opacity:0.75;fill:#000000;fill-opacity:1;stroke:none;stroke-width:0.40000001;stroke-linecap:round;stroke-linejoin:round;stroke-miterlimit:4;stroke-dasharray:none;stroke-dashoffset:0;stroke-opacity:1;filter:url(#filter4354)"
       d="m -335.49805,542.07031 c -6.44588,3.72092 -14.88706,5.49688 -19.7562,11.27801 0.0608,2.88586 -4.80217,3.30982 -3.501,7.37238 0.33891,6.36071 -1.63641,13.76967 1.60486,19.58985 3.76511,1.91642 -2.0294,4.27041 -1.58594,7.51953 0.16452,4.98871 -0.55671,9.7864 -0.33789,14.73633 0.23835,3.4345 5.30065,2.54609 4.31445,5.78125 -6.21477,0.2649 -3.22973,8.50368 -4.17968,12.54101 0.36636,3.9113 -0.9005,10.07581 3.60742,11.74414 -0.0785,2.86786 -4.71517,3.5091 -3.42188,7.45899 0.29998,6.27427 -1.60678,13.52309 1.60743,19.2207 1.65999,2.3191 4.04162,6.00981 7.61523,7.13281 4.80053,1.40294 8.75212,4.80623 13.4082,6.21094 6.67476,-0.95821 4.92621,-9.75651 5.00782,-14.42187 0.89218,-3.66408 0.0426,-8.50896 -3.31641,-10.0254 -0.0676,-2.72398 4.65015,-3.32069 3.39648,-7.02929 -0.31861,-6.32477 1.68216,-13.59497 -1.55859,-19.35938 -3.37432,-0.37572 -1.04122,-2.94315 0.70117,-4.25195 3.10601,0.91129 0.18232,4.26512 2.89258,6.26758 4.81537,3.85232 10.96401,5.78737 16.35742,8.73437 2.13225,1.15345 4.9598,-0.79437 5.74805,-1.76367 2.11671,1.30526 3.8094,3.93436 1.04687,5.37695 -3.86265,5.16687 -1.33797,12.15159 -1.84375,18.09571 1.8e-4,2.7802 3.16972,3.94533 1.75,6.5 3.70762,6.73496 12.50341,7.01515 18.0918,11.52343 6.16047,2.04503 7.53374,-6.35374 6.82813,-10.68164 -0.73349,-4.09517 1.90571,-9.78095 -2.38477,-12.57617 1.30706,-2.23552 -1.45532,-3.93064 1.45508,-5.40625 1.32494,-6.53873 2.21149,-14.34343 -0.70703,-20.52148 -1.85596,-1.18122 0.3544,-5.05623 -2.78711,-6.21094 -6.71433,-2.69486 -12.87971,-8.54918 -20.33399,-8.35547 -0.96914,2.12893 -2.95294,-0.20476 -3.375,-0.89648 -1.00835,-2.29555 2.25604,-4.65032 3.19532,-1.66992 6.6826,2.29283 11.68029,-4.67723 17.76367,-6.16797 2.96216,-1.0718 6.19975,-4.3788 4.50781,-7.48829 4.43845,-3.23013 2.21396,-9.92917 2.84961,-14.71093 0.0862,-3.27421 -0.97175,-7.14479 -3.28516,-8.83399 -0.43426,-6.80234 -9.01454,-7.09309 -13.39843,-10.53711 -2.59921,-1.4554 -6.8699,-3.6217 -8.93164,-0.29297 -1.33797,-3.63853 -3.53019,-8.05524 -8.18165,-9.36328 -5.64943,-1.18535 -11.12288,-8.10729 -16.9707,-4.47851 -0.786,-1.38725 -2.19365,-1.96201 -3.89258,-2.04102 z m 107,0 c -6.44588,3.72092 -14.88706,5.49688 -19.7562,11.27801 0.0177,2.97159 -4.85468,3.39988 -3.4977,7.48176 0.31276,6.23461 -1.62354,13.52547 1.60742,19.21484 3.58833,0.28941 0.77001,2.95751 -0.55469,4.34766 -2.64222,4.92412 -0.0568,10.66214 -1.48242,15.84375 0.20454,-2.40949 -1.54877,-4.60885 -3.21875,-5.33789 -0.6655,-2.6586 3.80066,-2.86542 3.35742,-6.0918 -1.30422,-6.26074 2.77087,-14.59834 -2.9082,-19.30859 -1.0562,-0.73851 -0.71455,-3.61585 1.24609,-3.86914 3.06275,-5.15739 1.62212,-12.0011 1.61133,-17.82227 0.68114,-4.11931 -3.66005,-7.46587 -7.20313,-4.73828 -6.20332,3.4883 -14.2384,5.24682 -18.60937,11.10352 0.58473,2.52887 -3.03906,4.5093 -1.8418,7.82421 0.35566,5.55804 -1.86396,13.12608 2.55469,17.38086 1.61194,1.07287 0.47156,3.64067 -1.20898,4.52149 -3.06777,5.65628 -0.57369,12.41268 -1.74024,18.47265 0.12873,2.74176 4.20416,4.01043 2.36328,6.17969 -3.59197,3.83616 -1.4119,9.93221 -2.15429,14.81836 -0.16296,3.5192 0.72292,8.18601 3.32421,9.68555 1.00342,3.05359 -3.44665,3.98645 -3.14453,7.46679 0.007,5.2708 -0.41555,10.6133 -0.15234,15.81055 0.81718,2.26392 3.20844,2.57345 2.52539,5.10547 3.81562,6.03583 11.80398,6.74886 17.3418,10.63086 3.72602,2.2209 8.73569,-0.67788 7.87146,-5.15669 -0.0945,-5.89594 1.84469,-13.17024 -1.91443,-18.17144 -2.05834,-0.34756 -2.05397,-3.69622 0.0664,-4.10546 3.44237,-4.79304 1.83604,-11.54982 2.13085,-17.18165 0.19645,-2.92111 -1.30243,-5.60962 -3.40429,-6.55468 -0.59561,-2.24072 3.7471,-2.57136 3.04492,-5.54102 0.30326,-3.51492 0.3898,-9.20717 0.52148,-11.55859 1.64999,1.93917 2.25676,2.7414 2.64844,5.17578 4.08139,5.51312 11.60733,6.34831 17.03516,10.09375 2.27802,1.56902 5.51284,0.10057 7.03906,-0.45117 2.61525,1.4121 1.39915,2.97372 -0.78516,3.97851 -1.98319,6.0915 -1.13823,13.27391 -0.82226,19.83985 -0.27544,3.10531 5.27855,6.13238 1.11523,7.29101 -4.71382,-3.29775 -10.19918,2.18687 -14.87304,3.58594 -3.31109,2.03877 -11.61328,4.85045 -7.20313,9.55273 4.7307,4.72618 11.84406,5.73213 17.16797,9.58789 2.92735,1.33635 4.5013,-2.90324 6.9375,-0.36328 6.55291,1.24519 10.92,-5.20997 17.04687,-6.25586 3.27599,-0.828 4.90579,-4.28364 4.83008,-6.97851 4.65496,-4.99661 1.62286,-12.56693 2.62305,-18.57031 0.53076,-2.89057 -3.36251,-3.86576 -3.36328,-5.70118 -0.91989,-2.91132 3.83884,-3.28705 3.04253,-6.72892 0.17733,-6.24976 1.83262,-13.40434 -1.30816,-19.07186 -0.99551,-5.80814 -8.76941,-7.97777 -13.89258,-10.31836 -3.18664,-1.73558 -7.78168,-4.98161 -10.86132,-2.08203 -2.31896,-0.89767 -2.86514,-2.86526 -0.0977,-3.7832 2.78621,-4.76588 1.10803,-10.88228 1.62891,-16.25391 0.066,-3.32209 -0.66573,-7.5691 -3.60157,-8.09765 -0.37955,-2.3444 2.19768,-3.41334 3.67774,-1.72461 6.40038,1.20464 11.14569,-4.93091 16.95312,-6.61719 4.53836,-1.05347 6.46107,-7.90431 1.20118,-9.53906 -6.26261,-2.67268 -12.1731,-8.07921 -19.19922,-7.8125 -0.9183,1.03002 -2.15996,-0.83748 -3.71485,-0.48438 z m -186.73047,0.10938 c -7.23076,2.72323 -15.6522,5.30408 -20.40039,11.625 0.39978,2.61829 -3.28686,4.52506 -1.97265,7.6875 -0.03,6.50827 -1.66424,13.85499 1.41406,19.80078 4.08498,0.63232 -1.70699,3.64415 -1.05273,6.38281 0.41103,5.78689 -1.36659,12.24252 1.26171,17.63281 3.08162,2.03779 0.41466,3.94876 -0.80468,6.35938 -1.18504,5.74204 -0.66166,11.89869 0.0352,17.67969 0.44422,2.83983 4.04922,3.00741 3.42383,5.93359 -5.9756,4.33817 -2.69231,12.99939 -3.98633,19.2793 -0.38934,3.11154 3.12595,4.14967 2.68164,6.81445 4.17842,6.19615 12.55468,6.7899 18.22852,11.07812 6.56712,1.29402 6.97005,-7.68084 6.25,-12.11523 0.0406,-3.88609 1.52184,-9.68288 -2.89063,-11.69727 -0.39252,-2.60339 0.0695,-3.40285 2.08985,-5.00195 1.32494,-6.53873 2.21149,-14.34343 -0.70703,-20.52148 0.22874,-1.47903 -1.54888,-4.00745 0.80859,-4.95703 0.96586,-0.90056 3.8157,1.67535 5.89844,0.35351 5.45466,-2.84816 11.31066,-5.26145 16.37695,-8.77148 1.92793,-1.24153 0.3175,-6.20948 3.3457,-4.15821 7.04729,3.01448 12.66164,-4.7351 19.10157,-6.25 2.70398,-0.83606 3.50693,-4.04294 4.29297,-5.86523 4.98627,-2.92649 2.00159,-9.97943 3.0625,-14.67187 -10e-4,-3.84054 0.0983,-9.76854 -3.64454,-10.54883 0.57719,-5.84036 -7.25107,-5.79243 -10.5315,-8.7695 -4.04738,-2.32688 -9.32473,-4.87993 -13.29271,-3.84574 -2.18752,-0.69949 -0.88209,-5.09717 -4.34375,-5.26562 -6.26261,-2.67268 -12.1731,-8.07921 -19.19922,-7.8125 -1.23446,2.58028 -3.27009,-1.74738 -5.44532,-0.375 z m 367.730473,0.0293 c -6.165935,3.74432 -15.337464,5.04436 -18.490869,12.22592 1.38483,3.02334 -3.039905,1.03461 -3.673193,3.8483 -2.520885,5.25104 -0.668037,11.32095 -1.150391,16.89649 -0.03645,2.80796 3.184164,4.10416 4.214844,5.50586 1.399185,2.83116 -3.745143,1.57544 -3.597656,4.86133 -1.291958,5.91176 -1.121048,12.5114 0.617187,18.21679 2.912001,1.51882 1.298081,3.16567 2.765625,5.60156 -6.579056,3.71378 -3.219192,12.34294 -4.056641,18.40039 -0.05751,2.79623 2.825832,4.57173 4.263672,5.72461 1.224255,2.76447 -3.659002,1.94403 -3.708984,5.08789 -1.13502,5.40596 -0.527778,11.1703 -0.115235,16.63086 0.02254,2.35037 3.201856,3.46788 3.828126,4.26368 0.091,7.29062 9.34108,7.58453 13.865234,11.26953 3.024542,2.67825 9.54761,3.01279 9.707031,-2.29297 -0.478061,-6.45658 1.871361,-13.9077 -1.617187,-19.69531 -1.507341,-0.009 -3.437506,-1.28551 -2.638672,-2.99414 2.168828,-0.55491 3.018353,-2.00312 4.833984,-0.004 5.140251,0.84831 9.373634,-3.94075 14.097656,-5.47266 3.136295,-1.51195 7.398144,-4.22114 6.007813,-7.91015 2.142707,-0.6473 2.301182,-3.86925 4.066406,-1.04493 2.906985,2.91339 -3.039273,3.54958 -2.467912,7.10722 0.422366,6.50827 -1.775733,13.98809 1.624162,19.88888 1.447492,0.69021 1.539176,4.49593 4.1875,5.63672 4.9647735,2.94606 10.3662102,5.24727 15.55859388,7.66992 4.65589482,1.50185 7.26699572,-3.85735 6.26953122,-7.6875 0.6817306,-5.34249 1.0944635,-12.76707 -3.7128906,-15.92969 0.00901,-2.74758 -0.1232114,-3.82332 2.5507813,-5.13672 2.3891464,-5.11023 1.2761991,-11.27165 1.125,-16.83593 0.374275,-2.93404 -2.6475209,-4.23475 -3.9765626,-5.45704 -1.413074,-2.94954 3.924699,-1.96715 3.7011719,-5.32617 0.1435712,-6.36693 2.3304227,-14.33377 -1.921875,-19.63867 -2.2478876,-0.16553 -2.8020452,-1.11653 -2.1542969,-2.96484 5.6965087,0.26016 4.474188,-6.58685 4.5855798,-10.22566 -0.2395935,-4.72826 1.8908617,-13.61278 -4.3531579,-14.33098 0.2646644,-6.2353 -7.9252707,-6.40821 -11.5683593,-9.59571 -3.6031528,-2.04584 -9.7611828,-5.01068 -11.9648438,-0.83398 -2.532949,-1.17994 0.217668,-4.87122 -2.828125,-6.38281 -6.12913,-2.51465 -11.772626,-7.67328 -18.524169,-7.85059 -2.219243,1.93189 -2.548881,-1.77102 -5.348878,-1.22559 z m -128.000003,0.85938 c -5.8431,3.2198 -13.22936,5.00473 -17.7039,10.07591 0.0234,3.92477 0.77023,3.60009 -3.54414,4.678 -1.7546,5.81003 -1.65418,12.90483 -0.14453,19.07812 2.97591,2.52215 4.24242,1.20828 3.09374,5.30078 2.38004,2.27651 -3.98157,0.73871 -3.47656,4.17578 -1.26958,5.67803 -0.73665,11.97477 0.18946,17.44727 1.12595,2.37049 5.27128,0.78109 3.80664,3.77148 2.05392,3.51345 -4.01677,0.566 -4.3057,4.36399 0.21821,6.21455 -2.04466,13.78087 1.73734,19.22195 3.88147,-0.1181 0.60813,2.54192 2.68945,4.5957 -0.98502,0.29691 -4.42897,2.1507 -4.43945,4.78711 -0.41386,4.72206 -0.58797,9.7025 0.16211,14.35352 0.066,2.60342 4.97433,2.70971 3.17578,4.79297 2.4752,7.27465 11.63471,7.89986 17.33203,11.64844 6.54021,1.36681 6.03561,-7.21275 5.8457,-11.34961 0.22121,-3.64228 1.07023,-10.50725 -4.5039,-10.61524 2.81494,-1.82372 -2.58046,-5.06052 1.36914,-4.88476 5.20507,-2.39924 2.51002,-9.36567 3.41211,-13.78321 0.298,-3.47291 -2.62575,-7.39318 -5.15235,-7.89648 1.75346,-1.85458 -0.92419,-4.67196 2.45313,-4.5586 4.11453,-3.56268 2.15817,-10.21672 2.68359,-15.08593 0.0738,-3.13305 -2.49,-6.59004 -4.96094,-6.79883 1.38781,-2.16946 -1.03129,-4.41226 2.45313,-4.49024 4.103,-4.38957 1.4413,-11.26855 2.3457,-16.56445 0.21944,-3.2095 -3.33722,-6.11153 -6.23047,-4.53906 2.48329,-1.57901 -0.9576,-5.86401 2.29883,-5.05078 2.06585,-0.17816 2.73684,-2.89716 4.2793,-0.52344 3.22294,0.21664 1.90326,1.18147 2.20117,3.76367 2.18463,5.50812 9.14945,6.07287 13.56445,9.1543 2.65978,1.44288 6.86486,0.51669 7.44922,-2.56641 -0.0133,3.32959 5.80049,2.21576 3.80664,5.1543 0.51344,2.15743 1.18145,2.93645 -1.49219,2.8418 -4.66664,2.16354 -1.88421,8.51174 -2.88476,12.57617 0.24082,3.27566 -0.57492,9.352 3.83203,9.35742 -1.07361,2.77933 1.38784,4.08071 -2.30273,4.85938 -2.4466,4.34909 -1.17136,10.17735 -1.42188,15.24023 -0.19365,3.18415 1.43439,7.2231 5.24609,5.75 -3.05914,1.61302 2.04951,6.16488 -2.13476,5.12891 -5.21843,4.07846 -2.65569,12.2861 -2.64844,18.09179 -0.0527,3.38097 6.40582,2.23367 2.83399,5.3125 2.03202,7.00297 10.76718,7.1916 15.99023,10.82422 5.2978,1.35503 7.74467,-4.87126 6.57422,-9.11328 1.09388,-4.47805 0.65369,-11.99334 -4.54102,-12.66797 1.65519,-1.91286 -1.76332,-4.77481 1.70703,-4.50195 4.49045,-2.8223 2.32671,-9.41173 3.04102,-13.85938 0.10116,-3.17923 -1.45423,-7.09912 -4.48047,-7.58007 1.89111,-1.84996 -0.89189,-4.61929 2.28711,-5.02149 4.40517,-4.01702 0.8322,-10.45694 2.36328,-15.45703 0.54133,-2.9985 -2.03981,-5.81288 -4.12109,-6.48047 1.53492,-2.10619 -2.42596,-4.74537 1.18555,-4.71875 4.05801,-3.01949 2.15602,-9.2024 2.71289,-13.58008 0.2044,-3.29214 -2.04379,-7.39966 -4.69532,-7.80078 1.64964,-2.18276 -1.90769,-4.90655 1.86719,-4.89844 1.97416,-3.08236 2.14352,0.31692 4.64063,0.64649 3.77125,-0.87824 0.036,3.04818 2.34179,4.91797 3.47937,4.02748 9.14585,5.25899 13.6543,7.82226 2.75789,1.15556 6.560433,-0.25881 6.761718,-3.55078 -0.49029,3.71827 5.881306,2.77718 3.66211,5.89844 0.77336,2.39756 0.762449,2.54408 -1.6875,2.69336 -4.494826,2.54561 -1.820469,9.03046 -2.623047,13.35547 -0.191214,3.31147 1.243255,8.50969 4.699218,7.92383 -4.227207,1.73789 2.26399,5.86784 -1.914062,6.17382 -4.735299,4.65038 -2.176513,12.05941 -2.398438,17.90235 0.523737,1.96486 2.626428,3.21146 4.611329,2.83789 -2.147821,2.21202 1.899568,5.26272 -2.222657,5.36718 -4.648038,4.62701 -2.244825,11.87779 -2.367187,17.65235 -0.04405,3.06944 6.114779,2.24861 3.072967,4.69093 0.341308,6.81797 9.359337,7.53914 13.91922,10.84422 4.127913,4.39566 10.149549,-0.89576 8.830078,-5.90039 -1.224483,-4.75937 2.828844,-13.74013 -4.486328,-14.99414 -1.271981,0.28387 0.574357,-3.74836 -0.601562,-4.51757 6.19083,-0.15843 4.406744,-8.14244 5.02539,-12.17774 0.09081,-3.58979 -0.377977,-9.46154 -5.050781,-9.51562 1.416559,-1.93895 -1.402437,-4.84717 1.960938,-4.60938 5.587666,-3.24688 1.676026,-10.51993 3.216796,-15.4414 0.602594,-3.15057 -1.702531,-6.47917 -4.351562,-6.97657 1.361629,-2.07726 -2.073682,-4.81136 1.402344,-4.74804 4.123727,-3.05202 2.107126,-9.32664 2.785156,-13.75586 0.06571,-3.23686 -1.446162,-7.37352 -4.814453,-7.58008 2.525254,-5.86932 -5.865986,-7.29543 -9.208985,-10.07422 -3.313004,-2.01022 -9.819653,-4.53621 -11.318359,0.43555 0.545685,-2.91553 -3.141313,-3.78006 -4.355473,-4.23047 1.827836,-6.00474 -6.83117,-6.65873 -10.11718,-9.52344 -3.68841,-2.24248 -9.48998,-4.74256 -12.19141,-1.35352 -4.63252,-2.30893 -9.62956,2.15117 -13.95898,3.71094 -3.19097,1.57323 -8.95498,4.90173 -4.71289,8.54102 -2.59111,-0.90885 -4.63469,1.69167 -4.90039,3.49609 0.076,-2.73559 -3.52012,-3.48473 -4.22852,-4.40039 1.60138,-6.41521 -6.10875,-8.06176 -10.375,-10.10937 -2.74177,-1.91797 -7.43376,-3.31109 -9.39258,-0.5254 -0.26214,-2.02583 -2.2227,-2.79981 -4.11133,-2.88476 z m 25.36719,14.44726 c -0.27304,0.0684 -0.63806,-0.0618 0,0 z m -182.41602,7.8711 c 2.93841,1.40641 2.01448,5.56777 5.47266,7.05469 5.73566,2.01388 10.62637,6.76881 16.76172,7.38281 2.4099,0.16943 3.16173,-3.89888 4.67383,-0.75781 0.21208,2.67319 0.34244,6.41218 -2.72266,2.5 -3.74149,-1.73521 -7.96716,3.32975 -11.9039,4.14617 -3.63561,2.23205 -10.24308,3.59578 -10.11563,8.63312 -2.06513,1.10878 -3.867,2.44497 -3.51367,-0.89648 4.74835,-4.72656 2.09793,-12.63789 2.97461,-18.69141 0.4062,-2.686 -2.4241,-4.4819 -3.47461,-5.73242 0.0292,-2.32087 -0.25244,-2.29469 1.84765,-3.63867 z m 288.033208,0.0781 c 1.690677,1.21755 3.764848,0.39557 2.972656,3.06446 1.918331,5.9573 9.425448,6.16041 13.589844,9.94531 2.432597,1.88876 6.492582,0.0167 7.814453,-0.42383 5.697436,2.64422 -0.544654,3.40239 -0.600209,7.54445 0.497004,6.33535 -2.093484,14.46982 2.582631,19.54344 2.315311,-0.21188 2.580921,3.7838 0.04936,3.49267 -1.688892,1.31704 -1.759404,3.21105 -3.750528,1.08936 -6.615657,-0.0391 -12.908168,4.25011 -18.607422,7.53321 -3.948365,0.98294 -1.01632,6.06863 -4.005859,6.04297 -1.688033,-0.72288 -2.268627,-3.85652 -0.34375,-4.28516 3.733742,-3.53453 0.907663,-9.54091 2.048828,-14.08008 0.116424,-3.6455 -0.114773,-8.78908 -3.439453,-9.9082 -0.951089,-3.00843 2.810461,-3.27289 2.904297,-6.37696 -0.02144,-6.19036 2.182188,-13.91692 -2.042969,-19.02734 -2.405368,-0.0558 -2.902006,-3.64138 -0.113281,-3.46875 0.345026,-0.16551 0.669063,-0.47389 0.941406,-0.68555 z m -365.330078,0.60157 c 2.28296,0.7303 0.83708,5.03783 3.83984,6.29101 5.82567,2.41219 11.18685,7.4968 17.78321,7.31446 1.99841,-1.31151 4.79418,-0.17471 4.84375,2.19921 -1.28172,2.90696 -3.38503,-2.16243 -6.10743,-0.59961 -6.82095,3.70704 -15.51049,5.66182 -20.42187,11.9004 0.37905,3.94144 -2.55101,2.88962 -2.72656,-0.67969 4.07917,-3.2178 2.32182,-10.01744 2.79492,-14.875 0.46855,-3.77172 -2.54627,-6.70992 -1.20703,-10.16016 -0.58471,-0.678 0.8205,-2.61009 1.20117,-1.39062 z m 414.484375,2.53711 c 0.090871,0.04 -0.2300301,-0.0636 0,0 z m -79.771484,1.9121 c -0.273038,0.0684 -0.638061,-0.0618 0,0 z m 29.771484,25.0879 c 0.09087,0.04 -0.23003,-0.0636 0,0 z m -29.783203,27.91015 c -0.261394,0.0778 -0.472686,-0.0599 0,0 z m -49.966802,0.008 c -0.82536,0.0516 -0.17195,-0.0677 0,0 z"
       id="path4224"
       inkscape:connector-curvature="0"
       transform="matrix(0.97548097,0,0,0.97548097,-5.2809014,16.89207)" />
    <path
       style="color:#000000;font-style:normal;font-variant:normal;font-weight:normal;font-stretch:normal;font-size:medium;line-height:normal;font-family:sans-serif;text-indent:0;text-align:start;text-decoration:none;text-decoration-line:none;text-decoration-style:solid;text-decoration-color:#000000;letter-spacing:normal;word-spacing:normal;text-transform:none;direction:ltr;block-progression:tb;writing-mode:lr-tb;baseline-shift:baseline;text-anchor:start;white-space:normal;clip-rule:nonzero;display:inline;overflow:visible;visibility:visible;opacity:1;isolation:auto;mix-blend-mode:normal;color-interpolation:sRGB;color-interpolation-filters:linearRGB;solid-color:#000000;solid-opacity:1;fill:#ffffff;fill-opacity:1;fill-rule:nonzero;stroke:none;stroke-width:13;stroke-linecap:round;stroke-linejoin:round;stroke-miterlimit:4;stroke-dasharray:none;stroke-dashoffset:0;stroke-opacity:1;color-rendering:auto;image-rendering:auto;shape-rendering:auto;text-rendering:auto;enable-background:accumulate"
       d="m -408.10938,539.54492 c -1.08765,0.0392 -2.14806,0.35077 -3.08398,0.90625 -1.13877,-0.54787 -2.32899,-0.88672 -3.20508,-0.88672 -2.37358,0 -2.62466,0.40672 -3.4707,0.70313 -0.84604,0.29641 -1.71636,0.64973 -2.66992,1.06054 -1.90712,0.82164 -4.10766,1.86593 -6.26172,2.94922 -2.15406,1.0833 -4.23263,2.1887 -5.91406,3.17578 -0.84072,0.49355 -1.56378,0.93705 -2.29493,1.46485 -0.36557,0.2639 -0.72464,0.52304 -1.24609,1.03515 -0.49254,0.48373 -1.90285,0.74005 -2.0625,4.34766 -0.4984,0.63048 -0.77693,1.14954 -0.92773,1.5 -0.42582,0.98956 -0.46807,1.41654 -0.55664,1.88281 -0.17715,0.93255 -0.25409,1.76068 -0.33204,2.77344 -0.15589,2.02553 -0.24023,4.61453 -0.24023,7.51758 l 0,10.07617 c 0.002,1.79209 0.74436,3.50373 2.05078,4.73047 -0.28102,0.4803 -0.55779,0.96663 -0.6582,1.24414 -0.28149,0.77793 -0.33568,1.17425 -0.4082,1.58789 -0.14505,0.82728 -0.21492,1.57504 -0.28126,2.4668 -0.13266,1.78351 -0.20312,4.01526 -0.20312,6.48437 0,2.44178 0.0561,4.64503 0.1582,6.3711 0.0511,0.86303 0.10537,1.57835 0.21094,2.33007 0.0528,0.37587 0.0891,0.71794 0.29492,1.41797 0.10291,0.35002 0.1855,0.77262 0.73633,1.67579 0.18303,0.3001 0.65791,0.76424 1.07227,1.19531 l 0,0.0195 c -0.41436,0.43107 -0.88924,0.89521 -1.07227,1.19531 -0.55083,0.90317 -0.63342,1.32577 -0.73633,1.67578 -0.2058,0.70003 -0.24214,1.04211 -0.29492,1.41797 -0.10557,0.75173 -0.15986,1.46509 -0.21094,2.32813 -0.10214,1.72606 -0.1582,3.93127 -0.1582,6.37304 0,2.49822 0.0874,4.75442 0.25391,6.58985 0.0833,0.91771 0.16833,1.69448 0.36132,2.59765 0.0965,0.45159 0.17411,0.90276 0.55274,1.76172 0.18931,0.42948 0.41971,0.9836 1.16211,1.82031 0.21344,0.24057 0.67779,0.53602 1.04883,0.82227 -0.0533,0.0456 -0.16361,0.0951 -0.21094,0.13867 -0.77379,0.71311 -1.06758,1.23983 -1.28711,1.63086 -0.43905,0.78206 -0.51936,1.14308 -0.61133,1.45117 -0.18393,0.61619 -0.22851,0.9373 -0.28711,1.29297 -0.11719,0.71135 -0.19332,1.41452 -0.27148,2.26172 -0.15632,1.69441 -0.29214,3.86946 -0.38477,6.27148 l -0.32226,8.38868 c -0.0721,1.93121 0.71886,3.79437 2.1582,5.08398 0.11039,2.34013 1.4714,4.43984 3.5625,5.4961 l 8.42773,4.24023 0.002,0 8.42578,4.23828 c 4.23066,2.12675 9.24282,-0.83834 9.41601,-5.57031 l 0.29102,-8.01367 c 0.0837,-2.29348 0.1155,-4.41276 0.0957,-6.08789 -0.01,-0.83757 -0.0302,-1.54778 -0.0781,-2.22657 -0.024,-0.33939 -0.0479,-0.65485 -0.125,-1.1289 -0.0385,-0.23703 -0.0808,-0.50389 -0.22266,-0.97852 -0.14189,-0.47463 3.2e-4,-1.14593 -1.66992,-2.81641 -0.26253,-0.26251 -0.47401,-0.37106 -0.7168,-0.57031 -0.009,-0.17272 -0.0603,-0.25697 -0.0781,-0.41406 0.12346,-0.10451 0.3635,-0.20999 0.45898,-0.30664 0.8489,-0.85937 1.11316,-1.45712 1.32617,-1.9082 0.42603,-0.90217 0.50439,-1.35865 0.60547,-1.8086 0.20217,-0.89989 0.28464,-1.63786 0.36719,-2.51172 0.16511,-1.74772 0.25,-3.87794 0.25,-6.24414 0,-2.30758 -0.0544,-4.39513 -0.1543,-6.04297 -0.0499,-0.82391 -0.10277,-1.51035 -0.20703,-2.24218 -0.0521,-0.36592 -0.0898,-0.70415 -0.28906,-1.38282 -0.0996,-0.33933 -0.18736,-0.74884 -0.6875,-1.5957 -0.0608,-0.10301 -0.3049,-0.32912 -0.39649,-0.4707 0.0812,-0.33629 0.13539,-0.67852 0.16211,-1.02344 0.49935,0.11773 0.97671,0.25781 1.59375,0.25781 2.39856,0 2.14427,-0.33281 2.5254,-0.46875 0.38112,-0.13593 0.68667,-0.26183 1.01953,-0.40429 0.66571,-0.28494 1.40745,-0.63 2.25586,-1.03516 1.6968,-0.81032 3.78064,-1.85306 5.83203,-2.91016 2.05138,-1.05709 4.05214,-2.11912 5.59765,-2.98047 0.77276,-0.43067 1.41382,-0.79728 2.00586,-1.16992 0.29602,-0.18631 0.54612,-0.33555 1.01758,-0.70898 0.23573,-0.18672 0.50544,-0.33016 1.14844,-1.13672 0.23065,-0.28933 0.5592,-0.79126 0.87695,-1.55469 1.67149,0.60329 3.51708,0.49601 5.10742,-0.29687 l 8.25,-4.12696 c 2.29059,-1.14596 4.40968,-2.22184 6.00586,-3.04687 0.79809,-0.41252 1.46281,-0.75997 1.97852,-1.03711 0.25785,-0.13857 0.47425,-0.25705 0.6914,-0.38086 0.10858,-0.0619 0.21414,-0.12189 0.36719,-0.2168 0.15305,-0.0949 0.1523,0.0228 1.01953,-0.76367 0.11129,-0.10092 0.17742,-0.25695 0.2793,-0.37109 l 0,4.0293 c 0.003,1.69274 0.66556,3.31767 1.84766,4.52929 -1.18163,1.21114 -1.84446,2.83528 -1.84766,4.52735 l 0,8.51171 c 0,2.44901 0.0593,4.66507 0.16602,6.40821 0.0534,0.87157 0.10878,1.59703 0.21875,2.35937 0.055,0.38117 0.0967,0.73165 0.30273,1.42383 0.103,0.34609 0.19483,0.76548 0.70508,1.61719 0.13056,0.21794 0.5636,0.63256 0.8418,0.98242 -1.41671,1.23226 -2.2314,3.0169 -2.23438,4.89453 l 0,8.90625 0,8.9043 c 0.003,2.05347 0.97639,3.98471 2.625,5.20898 0.30547,2.09417 1.61125,3.90856 3.5,4.86328 l 8.47656,4.26563 0.002,0 8.47656,4.26367 c 4.23066,2.12675 9.24282,-0.83834 9.41601,-5.57031 l 0.29102,-8.01367 c 0.0841,-2.3044 0.10954,-4.4389 0.0801,-6.13868 -0.0147,-0.84988 -0.04,-1.5751 -0.0977,-2.27929 -0.0288,-0.3521 -0.0564,-0.68067 -0.14648,-1.17774 -0.045,-0.24853 -0.0973,-0.53324 -0.25391,-1.01562 -0.15665,-0.48239 -0.13157,-1.17618 -1.62891,-2.67383 -0.0457,-0.0457 -0.0818,-0.058 -0.12695,-0.10156 0.24512,-0.22868 0.52625,-0.46888 0.68555,-0.66407 1.01154,-1.23946 1.03294,-1.74281 1.15625,-2.12109 0.24661,-0.75655 0.24205,-0.96488 0.27539,-1.19141 0.0667,-0.45305 0.0809,-0.6977 0.10156,-1 0.0412,-0.60458 0.0678,-1.29444 0.0918,-2.14257 0.048,-1.69627 0.0762,-3.96601 0.0762,-6.48828 l 0,-6.69922 c 0.15922,0.0937 0.27876,0.17771 0.45117,0.27734 1.50844,0.87169 3.49701,1.94329 5.73633,3.08789 2.21326,1.13127 4.30549,2.1625 5.95117,2.93945 0.82284,0.38848 1.52635,0.71067 2.13672,0.97266 0.30518,0.131 0.57953,0.24556 0.9082,0.36719 0.32868,0.12163 0.0362,0.34252 2.13477,0.48242 1.01114,0.0674 1.90065,-0.15681 2.69726,-0.46484 -0.13867,0.18559 -0.4438,0.44206 -0.52929,0.57617 -0.5474,0.85872 -0.6528,1.29801 -0.76563,1.65429 -0.22564,0.71258 -0.26815,1.06533 -0.32617,1.44336 -0.11604,0.75607 -0.17434,1.4517 -0.22851,2.28321 -0.10835,1.66302 -0.16602,3.7569 -0.16602,6.07226 0,2.2944 0.0483,4.3719 0.13477,5.9961 0.0432,0.8121 0.0888,1.48493 0.17578,2.17968 0.0435,0.34738 0.0751,0.66304 0.23633,1.28711 0.0806,0.31204 0.14382,0.67732 0.56835,1.49414 0.11441,0.22012 0.46939,0.61196 0.69336,0.92579 -0.65081,2.9064 0.75676,5.88331 3.41602,7.22461 l 8.42773,4.24023 0.002,0 8.42578,4.23828 c 4.23066,2.12675 9.24282,-0.83834 9.41601,-5.57031 l 0.15235,-4.20313 c 0.52847,0.58854 1.1599,1.07568 1.86328,1.4375 l 8.26758,4.21875 c 2.32336,1.18586 4.51441,2.26737 6.23047,3.08008 0.85803,0.40636 1.59015,0.74268 2.21679,1.01367 0.31333,0.1355 0.59206,0.25331 0.92188,0.37696 0.32981,0.12364 -0.0359,0.34863 2.16797,0.49609 2.51998,0.16861 4.50585,-1.26335 5.30664,-2.13867 0.80078,-0.87533 1.0311,-1.44988 1.22461,-1.88867 0.38701,-0.87759 0.46015,-1.32074 0.55468,-1.76954 0.18908,-0.89758 0.27072,-1.66542 0.35157,-2.57617 0.0472,-0.53182 0.0385,-1.31605 0.0723,-1.91601 0.42216,0.38003 0.89231,0.7031 1.39844,0.96094 l 8.42773,4.24023 0.002,0 8.42578,4.23828 c 1.72559,0.86536 3.74653,0.91904 5.51562,0.14649 1.78977,0.89506 3.89203,0.91594 5.69922,0.0566 l 8.83789,-4.20899 0,-0.002 8.83789,-4.21094 c 2.32515,-1.11262 3.77327,-3.49397 3.69141,-6.07031 0.37357,-0.38369 0.6983,-0.81206 0.9668,-1.27539 0.29675,0.24927 0.55407,0.49482 0.94921,0.74804 -0.19566,2.61966 1.20461,5.09961 3.54883,6.28516 l 7.47266,3.76758 7.47461,3.76758 c 4.21695,2.12472 9.22079,-0.81347 9.41992,-5.53125 l 0.29492,-7.01367 c 0.0864,-2.04455 0.11421,-3.9414 0.084,-5.48438 -0.0151,-0.77149 -0.0403,-1.43621 -0.10352,-2.11914 -0.0316,-0.34147 -0.0644,-0.67176 -0.16797,-1.18359 -0.1036,-0.51184 0.75508,-0.92667 -1.85742,-3.53907 -0.58774,-0.58774 -1.05294,-0.72907 -1.56055,-1.00781 0.0401,-0.44803 0.0335,-0.89902 -0.0195,-1.3457 0.33142,-0.20363 0.75959,-0.39156 0.98242,-0.58985 0.89132,-0.79315 1.22626,-1.41008 1.47657,-1.875 0.50061,-0.92982 0.59837,-1.41296 0.71484,-1.86718 0.23294,-0.90846 0.31739,-1.60077 0.4043,-2.40625 0.17381,-1.61097 0.25781,-3.51202 0.25781,-5.62696 0,-2.63882 -0.0471,-4.55508 -0.39648,-6.49804 -0.17471,-0.97149 -0.33571,-1.97687 -1.22071,-3.44141 -0.48387,-0.80073 -1.55749,-1.77445 -2.85547,-2.50391 0.0229,-0.23108 -0.008,-0.50017 -0.0117,-0.76757 0.76867,-0.36154 1.4244,-0.80418 1.82032,-1.18555 0.85363,-0.82228 1.14912,-1.42416 1.37695,-1.87891 0.45565,-0.90949 0.54255,-1.37771 0.65039,-1.82812 0.21569,-0.90084 0.29826,-1.61338 0.38281,-2.45117 0.16911,-1.67559 0.25391,-3.68637 0.25391,-5.91993 0,-2.76317 0.0444,-4.4488 -0.17383,-6.30273 -0.1091,-0.92696 -0.14506,-1.99187 -1.17773,-3.70313 -0.58784,-0.97411 -1.82639,-1.84529 -3.14649,-2.51171 0.0104,-0.089 -0.004,-0.1471 0.004,-0.23438 2.32446,-0.97123 3.8785,-3.19802 3.98828,-5.71484 l 0.29492,-7.01367 c 0.0864,-2.04455 0.11421,-3.9414 0.084,-5.48438 -0.0151,-0.77149 -0.0403,-1.43621 -0.10352,-2.11914 -0.0315,-0.34036 -0.0652,-0.67068 -0.16797,-1.17969 0.19596,0.15947 0.4244,0.3638 0.5918,0.48438 0.58879,0.42409 1.15067,0.7733 1.8125,1.16797 1.32365,0.78932 2.98168,1.6895 4.81641,2.61523 1.7833,0.89979 3.48245,1.72126 4.85156,2.34961 0.68455,0.31417 1.27917,0.57762 1.82226,0.80078 0.27155,0.11158 0.52216,0.21234 0.83789,0.32227 0.31574,0.10992 0.29465,0.28771 1.89844,0.41601 1.94239,0.15539 3.65512,-0.70505 4.6211,-1.46875 0.35183,0.31193 0.67972,0.54938 1.18554,0.81055 -0.002,0.0581 -0.0239,0.0591 -0.0254,0.11914 l 0,0.004 c -0.001,0.0605 0.0219,0.0703 0.0215,0.1289 -2.43719,0.99898 -4.03068,3.36993 -4.03516,6.00391 l 0,7.45117 0,7.45117 c 6.2e-4,2.20261 1.11654,4.25509 2.96484,5.45313 0.002,0.086 0.005,0.17195 0.01,0.25781 -1.85144,1.19537 -2.97118,3.24737 -2.97461,5.45117 l 0,7.45117 0,7.45118 c 0.003,2.64088 1.60299,5.01762 4.04883,6.01367 0.002,0.0955 -0.0182,0.14583 -0.0137,0.24609 -1.3095,0.6773 -2.14084,1.63674 -2.5,2.17188 -0.57694,0.8596 -0.69802,1.3129 -0.81836,1.67382 -0.24068,0.72186 -0.28147,1.06654 -0.33985,1.42774 -0.11674,0.7224 -0.16949,1.34925 -0.2207,2.0957 -0.10242,1.49289 -0.15625,3.34218 -0.15625,5.38867 0,2.04649 0.0538,3.89578 0.15625,5.38867 0.0512,0.74645 0.10396,1.37331 0.2207,2.09571 0.0584,0.3612 0.0992,0.70588 0.33985,1.42773 0.12034,0.36093 0.24142,0.81423 0.81836,1.67383 0.29236,0.43561 0.86023,1.17436 1.76562,1.80078 -0.40918,2.79027 1.02737,5.52611 3.55664,6.77344 l 6.63672,3.26172 c 1.88165,0.92464 3.67163,1.77084 5.09961,2.41601 0.71399,0.32259 1.33059,0.59197 1.87891,0.81641 0.27415,0.11222 0.52474,0.21327 0.82812,0.32031 0.30338,0.10705 0.23739,0.26376 1.80469,0.41992 2.06173,0.20543 4.0088,-0.75597 4.94531,-1.55664 0.93652,-0.80066 1.28636,-1.43759 1.54688,-1.91211 0.52103,-0.94902 0.61793,-1.43534 0.73632,-1.89257 0.2368,-0.91447 0.32105,-1.60427 0.40821,-2.40821 0.1743,-1.60787 0.25781,-3.50428 0.25781,-5.61718 l 0,-6.99219 c -0.003,-2.62282 -1.58225,-4.98678 -4.00391,-5.99414 3e-5,-0.0108 0.004,-0.0107 0.004,-0.0215 0,-0.26266 -0.0888,-0.29084 -0.10352,-0.51953 0.3942,-0.21549 0.8752,-0.41255 1.13477,-0.63281 0.94604,-0.80277 1.30011,-1.44344 1.5625,-1.91992 0.52477,-0.95296 0.62158,-1.44061 0.74023,-1.89844 0.23732,-0.91565 0.32105,-1.604 0.40821,-2.4082 0.17432,-1.6084 0.25781,-3.50616 0.25781,-5.6211 0,-2.04759 -0.0552,-3.89712 -0.1582,-5.39062 -0.0515,-0.74675 -0.10356,-1.37511 -0.22071,-2.09766 -0.0586,-0.36127 -0.10078,-0.70611 -0.34179,-1.42773 -0.12051,-0.36082 -0.2394,-0.81293 -0.81641,-1.67188 -0.30078,-0.44775 -0.90813,-1.20901 -1.85937,-1.8457 0.0314,-0.19446 0.084,-0.47242 0.084,-0.47266 3e-5,-2.7e-4 -0.002,-0.34094 -0.004,-0.68164 0.87345,-0.55915 1.45986,-1.14132 1.78125,-1.57031 0.72034,-0.96148 0.82629,-1.43419 0.94922,-1.78711 0.24587,-0.70583 0.25817,-0.94242 0.29688,-1.17383 0.0774,-0.46281 0.0927,-0.70243 0.11523,-0.98437 0.045,-0.56388 0.0731,-1.16252 0.0977,-1.89258 0.049,-1.46012 0.0762,-3.37669 0.0762,-5.49609 l 0,-7.49219 c -0.004,-2.34526 -1.27021,-4.50676 -3.31445,-5.65625 0.001,-0.20692 0.002,-0.45685 0.002,-0.45703 -4e-5,-4e-4 -0.075,-0.44615 -0.13867,-0.78125 0.17379,-0.12272 0.45666,-0.23151 0.58984,-0.34961 0.9055,-0.80304 1.23965,-1.427 1.49024,-1.89453 0.50117,-0.93508 0.59529,-1.41634 0.71093,-1.8711 0.23129,-0.90951 0.31579,-1.60353 0.40235,-2.41406 0.1731,-1.62107 0.25781,-3.54017 0.25781,-5.67578 0,-2.15653 -0.0908,-4.06221 -0.29297,-5.70117 -0.0632,-0.51239 -0.20571,-1.06524 -0.31836,-1.59375 0.32754,-0.15897 0.64114,-0.34517 0.9375,-0.55664 0.3735,0.33426 0.65572,0.55133 0.91406,0.73437 0.57852,0.40988 1.13452,0.75065 1.79102,1.13867 1.31301,0.77604 2.96335,1.66963 4.79102,2.5918 1.7833,0.89979 3.48245,1.72126 4.85156,2.34961 0.68455,0.31417 1.27917,0.57762 1.82226,0.80078 0.27155,0.11158 0.52216,0.21234 0.83789,0.32227 0.31574,0.10992 0.29465,0.28771 1.89844,0.41601 0.78963,0.0632 1.4762,-0.16146 2.164064,-0.35742 0.342999,0.4817 0.86025,0.91366 1.5,1.37891 -1.211347,1.21531 -1.893064,2.86027 -1.896484,4.57617 l 0,6.99219 c 0,2.02855 0.0474,3.86328 0.13477,5.32617 0.0437,0.73144 0.0882,1.34193 0.18359,2.01953 0.0477,0.3388 0.08149,0.65532 0.273437,1.31641 0.09597,0.33054 0.179738,0.73222 0.671875,1.57421 0.246068,0.421 0.589012,0.98788 1.410156,1.68946 0.09938,0.0849 0.299571,0.16406 0.419922,0.25195 -0.187322,0.94415 -0.162638,1.91811 0.07227,2.85156 -0.08497,0.0669 -0.247728,0.12861 -0.320313,0.19336 -0.889601,0.79361 -1.223037,1.41049 -1.472656,1.875 -0.499239,0.92903 -0.594694,1.41115 -0.710938,1.86524 -0.232487,0.90817 -0.317453,1.60002 -0.404303,2.40625 -0.17369,1.61245 -0.25781,3.51671 -0.25781,5.63476 l 0,7.01367 c 0.003,2.62282 1.582256,4.98678 4.00391,5.99414 6.15e-4,0.23896 0.07622,0.3081 0.0918,0.51758 -1.120548,0.62547 -1.781216,1.32861 -2.164062,1.84766 -0.864812,1.17247 -0.97194,1.76664 -1.132813,2.28516 -0.321746,1.03702 -0.405156,1.72966 -0.505855,2.54882 -0.20141,1.63833 -0.29297,3.54182 -0.29297,5.69727 0,2.06797 0.0542,3.93784 0.15625,5.44336 0.051,0.75276 0.10336,1.38479 0.218747,2.10742 0.05769,0.36131 0.09951,0.70419 0.335938,1.42187 0.118213,0.35885 0.233014,0.8069 0.802734,1.66602 0.276147,0.41642 0.825834,1.12475 1.664062,1.74024 -0.485379,2.79596 0.898989,5.58367 3.419922,6.88671 l 7.212891,3.71485 c 1.991487,1.0259 3.828947,1.96661 5.195312,2.66211 0.683183,0.34775 1.246584,0.63247 1.664063,0.84179 0.208739,0.10467 0.378866,0.18912 0.527344,0.26172 0.07424,0.0363 0.140145,0.0699 0.228515,0.11133 0.08837,0.0415 -0.231832,-0.0244 0.765625,0.30859 0.0011,3.6e-4 2.379788,0.32623 2.38086,0.32618 0.0011,-6e-5 1.620808,-0.24757 2.263672,-0.52539 1.285727,-0.55566 1.97906,-1.28071 2.417968,-1.80665 0.877817,-1.05186 0.985606,-1.57596 1.125,-1.95703 0.278789,-0.76213 0.287267,-1.00359 0.328125,-1.24218 0.08172,-0.4772 0.0964,-0.71414 0.119141,-0.9961 0.04549,-0.56391 0.07311,-1.15935 0.09766,-1.88672 0.0474,-1.40449 0.07236,-3.2648 0.07422,-5.29687 0.0068,0.004 0.01467,0.006 0.02148,0.01 0.05987,3.37702 1.280607,3.75249 1.6875,4.20508 0.417023,0.46386 0.653002,0.6473 0.859375,0.81446 0.412746,0.33431 0.681941,0.50851 0.978516,0.70312 0.593149,0.38921 1.231543,0.76876 2,1.20898 1.536914,0.88045 3.537649,1.9569 5.746094,3.08594 2.143953,1.09608 4.119598,2.09771 5.591796,2.83594 0.7361,0.36911 1.344383,0.67031 1.802735,0.89453 0.229176,0.11211 0.416149,0.20485 0.595703,0.28906 0.08978,0.0421 0.172893,0.08 0.302734,0.13672 0.129842,0.0567 -0.633099,0.0367 1.390625,0.44141 0.0011,2.1e-4 2.764554,-0.0447 2.765625,-0.0449 5.36e-4,-1.3e-4 1.194778,-0.40601 1.195313,-0.40625 5.35e-4,-2.5e-4 0.66875,-0.34202 0.939453,-0.52344 1.082813,-0.7257 1.53323,-1.39484 1.839844,-1.86719 0.613228,-0.94469 0.68153,-1.35658 0.779297,-1.67773 0.195533,-0.64231 0.204523,-0.85753 0.236328,-1.07422 0.06361,-0.43339 0.08079,-0.68024 0.101562,-0.97656 0.04155,-0.59264 0.0677,-1.26062 0.0918,-2.07618 0.0482,-1.63111 0.07617,-3.79485 0.07617,-6.1875 l 0,-8.51171 c -0.0029,-1.23186 -0.355833,-2.43754 -1.017578,-3.47657 2.030141,0 2.025279,-0.29077 2.419922,-0.42383 0.394643,-0.13305 0.703229,-0.25759 1.033203,-0.39453 0.659948,-0.27387 1.371813,-0.59858 2.177734,-0.97851 1.611843,-0.75986 3.563005,-1.73199 5.492188,-2.72656 1.929182,-0.99458 3.816006,-1.99943 5.30664,-2.83985 0.601032,-0.33886 1.096074,-0.63758 1.587891,-0.9414 l 0,6.28515 0,8.50391 c 0.0028,2.03148 0.955166,3.94484 2.574219,5.17187 0.142331,2.28928 1.480564,4.33411 3.521484,5.38086 l 7.9726564,4.07422 c 2.2451597,1.14731 4.3650425,2.19465 6.03125,2.98242 0.8331037,0.39389 1.5450221,0.71959 2.1601562,0.98438 0.3075671,0.13239 0.58301933,0.24876 0.9121094,0.37109 0.32909007,0.12233 0.0148423,0.34422 2.1464844,0.48633 2.3732384,0.15822 4.3267336,-1.13009 5.1601562,-1.98438 0.8334227,-0.85428 1.0963801,-1.44464 1.3066406,-1.89257 0.4205212,-0.89588 0.4989852,-1.35159 0.5996094,-1.80078 0.2012484,-0.8984 0.2827345,-1.63734 0.3652344,-2.51172 0.1649999,-1.74877 0.25,-3.8799 0.25,-6.2461 0,-3.01154 -0.050333,-5.14262 -0.3671875,-7.1582 -0.1584271,-1.00779 -0.289147,-1.99147 -1.09375,-3.47461 -0.3196041,-0.58913 -1.136483,-1.31832 -1.9726563,-1.99023 0.050594,-0.36548 0.146477,-0.87055 0.1464844,-0.8711 5.2e-6,-3.8e-4 -0.1006724,-0.48722 -0.1757812,-0.85156 0.8550608,-0.67998 1.6774653,-1.42335 2.0019531,-2.02148 0.804603,-1.48314 0.9353229,-2.46682 1.09375,-3.47461 0.3160951,-2.0158 0.3664285,-4.14689 0.3664285,-7.15843 0,-2.28461 -0.042628,-4.35311 -0.1191406,-5.95898 -0.038256,-0.80294 -0.079794,-1.46766 -0.1542969,-2.13281 -0.037252,-0.33258 -0.063945,-0.6294 -0.1972656,-1.20704 -0.06666,-0.28881 -0.1142507,-0.61613 -0.4765625,-1.39648 -0.1811559,-0.39017 -0.4101866,-0.92022 -1.1523438,-1.71875 -0.2064785,-0.22216 -0.6501844,-0.48656 -0.9980468,-0.74609 0.1539464,-0.12612 0.4346115,-0.25157 0.5488281,-0.36719 0.848895,-0.85937 1.1131579,-1.45712 1.3261719,-1.9082 0.4260278,-0.90217 0.5043836,-1.35865 0.6054687,-1.8086 0.2021702,-0.89989 0.2846341,-1.63786 0.3671875,-2.51172 0.1651068,-1.74772 0.25,-3.87794 0.25,-6.24414 0,-2.30758 -0.054454,-4.39513 -0.1542969,-6.04297 -0.049921,-0.82391 -0.1027742,-1.51035 -0.2070312,-2.24218 -0.052129,-0.36592 -0.089826,-0.70415 -0.2890625,-1.38282 -0.099618,-0.33933 -0.1873596,-0.74884 -0.6875,-1.5957 -0.2233478,-0.37818 -0.7358052,-1.08529 -1.4550782,-1.72851 0.7062627,-0.56933 1.251098,-1.13432 1.5019532,-1.51954 0.6158679,-0.94574 0.6849482,-1.35782 0.7832031,-1.67968 0.1965097,-0.64373 0.2063541,-0.8592 0.2382813,-1.07617 0.063854,-0.43395 0.080757,-0.68251 0.1015624,-0.97852 0.04161,-0.59202 0.067692,-1.25644 0.091797,-2.07031 0.04821,-1.62775 0.076172,-3.78811 0.076172,-6.17578 l 0,-8.49415 C 9.624844,569.395 7.976233,566.98764 5.4746094,566.01758 5.144927,563.84616 4.2129373,563.46943 3.8652344,563.0918 3.4436643,562.63394 3.2073682,562.45733 3,562.29297 2.5852637,561.96424 2.3114604,561.78979 2.0097656,561.5957 c -0.6033895,-0.38818 -1.2588492,-0.77048 -2.0488281,-1.21484 -1.5799578,-0.88873 -3.6405307,-1.97895 -5.9160156,-3.12305 l -7.9999999,-4.02343 c -1.632955,-0.81831 -3.534838,-0.91188 -5.240234,-0.25782 -0.503718,-1.70728 -1.685493,-3.13331 -3.269532,-3.94531 l -7.474609,-3.82617 c -2.111044,-1.08063 -4.10711,-2.06744 -5.6875,-2.8125 -0.790195,-0.37253 -1.468814,-0.68124 -2.064453,-0.93555 -0.29782,-0.12715 -0.568256,-0.23922 -0.896485,-0.35937 -0.328228,-0.12016 -0.09927,-0.33816 -2.109375,-0.47071 -0.82259,-0.0542 -1.495411,0.21141 -2.1875,0.42578 -1.97604,-1.53865 -4.66024,-1.80532 -6.90039,-0.68554 l -8.091797,4.05078 c -2.611498,1.30709 -4.708828,2.48021 -6.410156,3.65625 -0.850665,0.58802 -1.580467,1.08338 -2.519532,2.14258 -0.469532,0.5296 -1.089556,1.15894 -1.591797,2.76172 -0.06849,0.21856 0.02958,0.63549 -0.0039,0.91406 -2.202967,0.66016 -3.242919,2.24277 -3.636718,2.91015 -0.500013,0.84739 -0.588031,1.25826 -0.6875,1.59766 -0.19894,0.67881 -0.23711,1.01502 -0.289063,1.38086 -0.103905,0.73168 -0.157403,1.41854 -0.207031,2.24219 -0.09926,1.64729 -0.152344,3.73439 -0.152344,6.04101 0,0.10067 0.0057,0.16386 0.0059,0.26367 -0.01487,-0.008 -0.0299,-0.0157 -0.04492,-0.0234 0.0022,-0.0617 0.02186,-0.0513 0.02344,-0.11524 l 0,-0.002 c 0.08213,-3.37168 -1.169386,-3.95368 -1.601563,-4.45703 -0.432278,-0.50347 -0.683474,-0.69912 -0.896484,-0.875 -0.426021,-0.35177 -0.687952,-0.52187 -0.966797,-0.70508 -0.55769,-0.36642 -1.118515,-0.69664 -1.777343,-1.07227 -1.317658,-0.75124 -2.961637,-1.63013 -4.648438,-2.5 -1.686801,-0.86986 -3.395082,-1.71924 -4.830078,-2.38867 -0.717498,-0.33471 -1.356994,-0.62093 -1.97461,-0.87109 -0.308807,-0.12508 -0.604243,-0.24126 -0.99414,-0.36719 -0.389897,-0.12593 -0.508649,-0.38672 -2.314453,-0.38672 -1.369309,0 -2.390274,0.39687 -3.22461,0.88282 -0.628314,-0.54615 -1.355684,-0.96653 -2.142578,-1.23829 -0.172313,-1.54628 -0.730574,-3.35497 -1.902342,-4.41406 -1.52302,-1.37657 -1.11717,-0.82257 -1.32617,-0.94336 -0.209,-0.12079 -0.40769,-0.23002 -0.64258,-0.35742 -0.46978,-0.25479 -1.06203,-0.56692 -1.77149,-0.93555 -1.41892,-0.73726 -3.29145,-1.69224 -5.31054,-2.70312 l -7.25,-3.62891 c -2.36018,-1.17808 -5.19829,-0.81309 -7.1836,0.92383 -0.6765,-0.21758 -1.24083,-0.24371 -1.6289,-0.27539 -0.0935,-0.008 -0.1017,0.0102 -0.18555,0.006 -0.4677,-0.0357 -0.93788,-0.0206 -1.40234,0.0449 -2.48206,0.35091 -2.83413,0.78415 -4.2461,1.38672 -1.41196,0.60257 -3.05957,1.37313 -4.81055,2.25586 l -0.002,0.002 -6.82226,3.44141 c -2.41958,1.22287 -3.8262,3.81893 -3.5293,6.51367 -0.24686,0.153 -0.39687,0.27525 -0.59961,0.44141 -0.20259,-0.16624 -0.35283,-0.28632 -0.59961,-0.43946 0.29515,-2.67735 -1.09142,-5.2594 -3.48633,-6.49218 l -6.4707,-3.32813 c -1.84488,-0.94865 -3.60058,-1.81119 -5.01172,-2.4707 -0.70557,-0.32976 -1.31653,-0.60659 -1.875,-0.83985 -0.27923,-0.11662 -0.53834,-0.2208 -0.86523,-0.33593 -0.32689,-0.11513 -0.26327,-0.31979 -2.02149,-0.4336 -1.06787,-0.0691 -2.06102,0.16701 -2.9082,0.51563 -1.98466,-1.72925 -4.81629,-2.09091 -7.17188,-0.91602 l -7.25,3.62891 c -2.01918,1.01093 -3.89161,1.96583 -5.31054,2.70312 -0.70947,0.36865 -1.30187,0.68086 -1.77149,0.93555 -0.23481,0.12735 -0.4338,0.23679 -0.64258,0.35742 -0.20877,0.12064 0.20188,-0.43564 -1.32421,0.94336 -1.16836,1.05575 -1.95287,2.96924 -2.06836,4.47266 -2.53673,0.94911 -4.21917,3.37161 -4.22266,6.08008 l 0,7.35742 c 0,2.13913 0.0533,4.07383 0.1543,5.62109 0.0505,0.77363 0.10356,1.42054 0.21484,2.14453 0.0556,0.362 0.095,0.70364 0.31836,1.40821 0.11171,0.35228 0.21884,0.78789 0.76562,1.64453 0.31148,0.48798 1.0135,1.37572 2.14063,2.07617 -0.0295,0.28153 -0.0406,0.56469 -0.0332,0.84766 -0.87023,0.50765 -1.48542,1.12262 -1.82617,1.54492 -0.67085,0.83137 -0.84023,1.31893 -0.98633,1.68164 -0.29221,0.72542 -0.3233,1.01096 -0.375,1.26953 -0.10341,0.51713 -0.12491,0.7843 -0.1543,1.08789 -0.0588,0.60718 -0.0924,1.22448 -0.12305,1.97266 -0.0614,1.49636 -0.0957,3.4339 -0.0957,5.57226 l 0,7.51367 c 0.002,0.25534 0.0189,0.51034 0.0508,0.76368 -0.48162,-0.46598 -1.0324,-0.85469 -1.63281,-1.15235 l -8.5293,-4.22851 -0.002,-0.002 c -2.38094,-1.18079 -4.59792,-2.25345 -6.29297,-3.04882 -0.84784,-0.39784 -1.55772,-0.72273 -2.14258,-0.97852 -0.29243,-0.1279 -0.54399,-0.23659 -0.83984,-0.35156 -0.14793,-0.0575 -0.29894,-0.11645 -0.5586,-0.19922 -0.23831,-0.076 -0.40995,-0.26618 -1.89843,-0.30078 0.0916,-0.24108 0.31518,-0.64792 0.35937,-0.79883 0.18453,-0.63018 0.19266,-0.83942 0.22266,-1.05274 0.06,-0.42663 0.0754,-0.67786 0.0957,-0.98046 0.0406,-0.60522 0.0678,-1.29922 0.0918,-2.14844 0.0479,-1.69844 0.0762,-3.96012 0.0762,-6.46094 l 0,-8.91211 c -0.003,-0.93562 -0.20712,-1.85966 -0.59961,-2.70898 1.68324,-0.0521 1.78406,-0.30384 2.13477,-0.42774 0.38785,-0.13701 0.69667,-0.26468 1.0332,-0.4082 0.67305,-0.28704 1.41866,-0.63249 2.26953,-1.03906 1.70174,-0.81314 3.78542,-1.85936 5.83594,-2.91992 2.05052,-1.06057 4.04851,-2.12395 5.5957,-2.99219 0.7736,-0.43413 1.41547,-0.8048 2.01367,-1.18555 0.2991,-0.19038 0.55669,-0.34485 1.03516,-0.73047 0.23924,-0.19281 0.51746,-0.34987 1.15039,-1.16211 0.31646,-0.40612 0.82245,-0.94195 1.19922,-2.46094 0.37676,-1.51898 -0.20788,-4.82294 -1.94727,-6.40039 -0.86731,-0.78656 -0.86647,-0.66875 -1.01953,-0.76367 -0.15305,-0.0949 -0.25861,-0.15489 -0.36719,-0.21679 -0.21715,-0.12382 -0.43355,-0.24229 -0.6914,-0.38086 -0.51571,-0.27714 -1.18042,-0.62459 -1.97852,-1.03711 -1.59618,-0.82504 -3.71526,-1.90091 -6.00586,-3.04688 l -8.25,-4.1289 c -1.69041,-0.84242 -3.66363,-0.908 -5.40625,-0.17969 -1.74374,-0.7295 -3.71865,-0.66391 -5.41015,0.17969 l -8.25,4.1289 c -2.29066,1.146 -4.41162,2.22181 -6.00782,3.04688 -0.7981,0.41253 -1.46097,0.76004 -1.97656,1.03711 -0.25779,0.13853 -0.47443,0.25716 -0.6914,0.38086 -0.10849,0.0618 -0.21235,0.12201 -0.36524,0.21679 -0.15289,0.0948 -0.15092,-0.0239 -1.01953,0.76367 l -0.002,0 c -0.16058,0.14561 -0.22615,0.41315 -0.3711,0.58789 -0.0209,-0.68896 -0.0163,-1.58293 -0.0469,-2.16796 -0.0446,-0.85569 -0.0939,-1.56465 -0.18164,-2.2793 -0.0439,-0.35733 -0.0749,-0.67845 -0.23242,-1.30078 -0.0788,-0.31117 -0.1388,-0.67173 -0.55274,-1.48438 -0.20697,-0.40632 -0.48246,-0.95858 -1.26367,-1.72461 -0.78121,-0.76602 -2.4416,-1.86914 -4.57422,-1.86914 -2.19258,0 -1.91115,0.27619 -2.16406,0.36133 -0.25292,0.0851 -0.39598,0.1452 -0.53906,0.20313 -0.28617,0.11584 -0.53367,0.22521 -0.82227,0.35547 -0.5772,0.2605 -1.28626,0.59357 -2.13477,1.00195 -1.69702,0.81675 -3.92471,1.92005 -6.32421,3.13476 l -8.60547,4.35743 c -2.12201,1.07753 -3.48558,3.22851 -3.55469,5.60742 -1.22137,1.21707 -1.90919,2.86951 -1.91211,4.59375 l 0,5.15429 c -0.29243,-0.30534 -0.61122,-0.58279 -0.76758,-0.75195 -0.42485,-0.45965 -0.66351,-0.63519 -0.87109,-0.79883 -0.41516,-0.32727 -0.68471,-0.50003 -0.98047,-0.68945 -0.59152,-0.37885 -1.22343,-0.74581 -1.96875,-1.16602 -1.49064,-0.84041 -3.37746,-1.84526 -5.30664,-2.83984 -1.92918,-0.99458 -3.88035,-1.96671 -5.49219,-2.72656 -0.80592,-0.37993 -1.51778,-0.70464 -2.17773,-0.97852 -0.32998,-0.13693 -0.63856,-0.26147 -1.03321,-0.39453 -0.39464,-0.13306 -0.38978,-0.42383 -2.41992,-0.42383 -0.7406,0 -1.33099,0.14922 -1.90234,0.31055 -0.28574,-2.12867 -1.60445,-3.97881 -3.52344,-4.94336 l -6.82226,-3.41602 -0.002,-0.002 c -2.65866,-1.33206 -4.70083,-2.39774 -6.46094,-3.23437 -1.76074,-0.83694 -2.98941,-1.64209 -5.73046,-1.83594 -0.79816,-0.0564 -1.90265,0.1576 -2.99024,0.51562 -1.97959,-1.57763 -4.69495,-1.86265 -6.95898,-0.73046 l -8.25,4.1289 c -2.29066,1.146 -4.41162,2.22181 -6.00782,3.04688 -0.7981,0.41253 -1.46097,0.76004 -1.97656,1.03711 -0.25779,0.13853 -0.47443,0.25716 -0.6914,0.38086 -0.10849,0.0618 -0.21235,0.12201 -0.36524,0.21679 -0.15289,0.0948 -0.15092,-0.0239 -1.01953,0.76367 l -0.002,0 c -0.9451,0.857 -1.48474,2.21383 -1.79688,3.5293 -2.1374,1.12048 -3.47818,3.33281 -3.48242,5.74609 l 0,4.10938 c -0.11928,-0.13675 -0.20184,-0.31684 -0.33398,-0.43555 -0.93608,-0.84088 -0.88439,-0.67203 -1.03125,-0.76172 -0.14687,-0.0897 -0.24691,-0.14799 -0.35157,-0.20703 -0.20931,-0.11807 -0.42208,-0.2317 -0.67578,-0.36718 -0.50739,-0.27098 -1.16543,-0.61444 -1.95898,-1.02344 -1.58711,-0.818 -3.70151,-1.89013 -5.99024,-3.03516 l -8.25,-4.1289 c -1.54687,-0.77248 -3.33774,-0.89688 -4.97656,-0.34571 -0.32422,-1.16408 -0.87627,-2.32311 -1.71094,-3.08008 -0.86722,-0.78644 -0.86648,-0.66876 -1.01953,-0.76367 -0.15304,-0.0949 -0.25861,-0.15489 -0.36719,-0.21679 -0.21715,-0.12381 -0.43355,-0.24229 -0.6914,-0.38086 -0.51571,-0.27714 -1.18043,-0.62459 -1.97852,-1.03711 -1.59618,-0.82504 -3.71526,-1.90091 -6.00586,-3.04688 l -8.25,-4.1289 c -0.97374,-0.48748 -2.05433,-0.72254 -3.14258,-0.6836 z m 125.73438,59.38472 0,4.15625 c 0.003,1.66768 0.64721,3.27035 1.79883,4.47656 -1.15209,1.2067 -1.79613,2.81016 -1.79883,4.47852 l 0,4.13281 c -0.10188,-0.11414 -0.16801,-0.27017 -0.2793,-0.3711 -0.86731,-0.78656 -0.86647,-0.66875 -1.01953,-0.76367 -0.15305,-0.0949 -0.25861,-0.15489 -0.36719,-0.21679 -0.21715,-0.12382 -0.43355,-0.24229 -0.6914,-0.38086 -0.51571,-0.27714 -1.18042,-0.62459 -1.97852,-1.03711 -1.59618,-0.82504 -3.71526,-1.90091 -6.00586,-3.04688 l -5.58203,-2.79297 5.58203,-2.79297 c 2.28843,-1.14488 4.40235,-2.21615 5.98828,-3.0332 0.79297,-0.40852 1.45074,-0.75134 1.95704,-1.02148 0.25314,-0.13508 0.46361,-0.24989 0.67187,-0.36719 0.10413,-0.0586 0.20361,-0.11416 0.34961,-0.20313 0.146,-0.089 0.0871,0.085 1.0332,-0.76367 0.12937,-0.11604 0.21833,-0.3166 0.3418,-0.45312 z m 32.80078,13.95703 c 0.22763,0.15757 0.46509,0.30044 0.71094,0.42773 l 8.26758,4.21875 c 2.32336,1.18585 4.51441,2.26737 6.23047,3.08008 0.85802,0.40636 1.59015,0.74268 2.21679,1.01367 0.31332,0.1355 0.59206,0.25331 0.92188,0.37696 0.32981,0.12364 -0.0359,0.34863 2.16797,0.49609 0.0823,0.005 0.15131,-0.0198 0.23242,-0.0176 -0.35944,0.8183 -0.54627,1.70194 -0.54883,2.5957 l 0,8.98633 0,8.98438 c 0.003,1.00369 0.23825,1.99308 0.6875,2.89062 -0.506,0.0341 -0.89784,0.0877 -1.14648,0.14258 -0.60407,0.13334 -0.93993,0.25365 -1.3086,0.38281 -0.73734,0.25833 -1.47345,0.56199 -2.3457,0.93946 -1.7445,0.75493 -3.94451,1.78939 -6.32422,2.98047 l -8.32617,4.16796 c -0.49028,0.24858 -0.94705,0.55835 -1.35938,0.92188 -0.0163,-0.38528 -0.0113,-0.93687 -0.0312,-1.28516 -0.0495,-0.86383 -0.10152,-1.58203 -0.20117,-2.32226 -0.0498,-0.37012 -0.0863,-0.70645 -0.26953,-1.36719 -0.0916,-0.33037 -0.1679,-0.7219 -0.63477,-1.55859 -0.23343,-0.41835 -0.5546,-0.98323 -1.36523,-1.70899 -0.14672,-0.13136 -0.43888,-0.26169 -0.63477,-0.40039 0.93099,-0.78301 1.51072,-1.6003 1.85547,-2.26367 0.77636,-1.49387 0.89641,-2.47391 1.04883,-3.50195 0.30485,-2.05608 0.35547,-4.29372 0.35547,-7.49414 l 0,-8.49415 c -0.003,-1.88521 -0.82511,-3.67607 -2.25195,-4.9082 0.62048,-0.73313 0.92575,-1.30303 1.09961,-1.69726 0.38701,-0.87759 0.46015,-1.32074 0.55468,-1.76954 0.18908,-0.89758 0.27072,-1.66542 0.35157,-2.57617 0.0306,-0.34424 0.0219,-0.86677 0.0469,-1.24023 z"
       id="path4334"
       inkscape:connector-curvature="0"
       sodipodi:nodetypes="ccsssssssccssscccccsccssccscccscsscccsccscccccccccccccccccscssccccccsccsssccccccsscccccccscccccccccccccccccccccssccsscssscsscscssscccccccccccccsscsscccccccccccccccccccccscccccssssscsccssssscsccccscccsssscsccccccccccccccccscsscccccccsccsssccsccscsscssscssccccccccsccccccccsscccsssscccccsccssccccsssscccsssscccscccscsccccssscsccscsssssccccccssscssccccssscccccsscssssssssscccscssssssccsssssssscssssssccscssccccssccccccssccsssssccccssscsssssccsscsccccccsccccccccscsccccsccsccssccccccccccsccsccsccccssscscccsssscssssccsscccccssccccccccssscccsccccccccssscssccccsccccsscccccccccccsccccccsscccccccccsccsscccsccccccccsccccccccccscccccccscsssccccccc" />
    <path
       inkscape:connector-curvature="0"
       style="opacity:1;fill:#db00ff;fill-opacity:1;stroke:#db00ff;stroke-width:3;stroke-linecap:round;stroke-linejoin:round;stroke-miterlimit:4;stroke-dasharray:none;stroke-dashoffset:0;stroke-opacity:1"
       d="m -46.875,546.17969 -8.091797,4.05078 c -4.87733,2.44117 -7.729697,4.41288 -7.179687,4.96289 0.50187,0.50187 3.805616,2.42168 7.341796,4.26562 3.53618,1.84394 6.767188,3.40882 7.179688,3.47852 0.4125,0.0697 0.75,-3.67133 0.75,-8.31445 l 0,-8.44336 z m 5.75,0.93359 c -0.4125,-0.0272 -0.75,3.55675 -0.75,7.96289 l 0,8.00977 8.224609,-4.13477 8.22461,-4.13476 -7.47461,-3.82618 c -4.11116,-2.10447 -7.812109,-3.84975 -8.224609,-3.87695 z m 24.25,11.92774 0,8.52343 0,8.52149 8,-4.02149 c 4.4,-2.21228 8,-4.23728 8,-4.5 0,-0.26272 -3.6,-2.28772 -8,-4.5 l -8,-4.02343 z m -6.5,0.97265 -7.25,3.62305 c -3.9875,1.99282 -7.25,3.93078 -7.25,4.30664 0,0.37587 3.2625,2.29966 7.25,4.27539 l 7.25,3.59375 0.306641,-3.875 c 0.16912,-2.13057 0.16912,-5.68459 0,-7.89844 L -23.375,560.01367 Z m -43.017578,0.0508 c -0.2659,0 -0.482422,3.6 -0.482422,8 0,4.4 0.216522,8 0.482422,8 1.02907,0 15.517578,-7.46943 15.517578,-8 0,-0.53057 -14.488508,-8 -15.517578,-8 z M 3.125,572.07812 l -8.515625,4.22461 -8.517578,4.22266 8.267578,4.21875 c 4.5463,2.32044 8.378125,4.24193 8.515625,4.26953 0.1375,0.0276 0.25,-3.77041 0.25,-8.4414 l 0,-8.49415 z m -50.484375,0.98633 c -1.03003,0 -15.515625,7.46888 -15.515625,8 0,0.30922 3.2625,2.21019 7.25,4.22266 3.9875,2.01248 7.5875,3.6841 8,3.7168 0.4125,0.0327 0.75,-3.53946 0.75,-7.93946 0,-4.4 -0.218475,-8 -0.484375,-8 z m 30.484375,12.11524 0,8.52539 c 0,4.68896 0.3375,8.36604 0.75,8.17187 7.8340495,-3.68763 14.3217706,-7.12126 14.7441406,-7.80468 0.29478,-0.47696 -3.0698456,-2.67424 -7.4785156,-4.88086 L -16.875,585.17969 Z m -49.621094,0.88476 c -0.20903,0 -0.378906,3.6 -0.378906,8 0,5.75973 0.35004,7.98678 1.25,7.95117 0.6875,-0.0272 4.563864,-1.7479 8.615234,-3.82226 l 7.367188,-3.77148 -8.236328,-4.17774 c -4.52983,-2.29842 -8.408158,-4.17969 -8.617188,-4.17969 z m 69.136719,13 c -1.03003,0 -15.515625,7.46888 -15.515625,8 0,0.30922 3.2625,2.21019 7.25,4.22266 3.9875,2.01248 7.5875,3.6841 8,3.7168 0.4125,0.0327 0.75,-3.53946 0.75,-7.93946 0,-4.4 -0.218475,-8 -0.484375,-8 z m -49.515625,0.0137 -8.515625,4.22461 -8.517578,4.22266 8.267578,4.21875 c 4.5463,2.32044 8.378125,4.24193 8.515625,4.26953 0.1375,0.0276 0.25,-3.77041 0.25,-8.4414 l 0,-8.49415 z m 30.482422,12.98633 c -0.2659,0 -0.482422,3.6 -0.482422,8 0,4.4 0.216522,8 0.482422,8 1.02907,0 15.517578,-7.46943 15.517578,-8 0,-0.53057 -14.488508,-8 -15.517578,-8 z m -49.232422,1.0488 c -0.89996,-0.0356 -1.25,2.19144 -1.25,7.95117 0,4.4 0.234274,8 0.521484,8 0.28721,0 4.21316,-1.85669 8.72461,-4.125 l 8.203125,-4.12304 -7.47461,-3.82618 c -4.11116,-2.10447 -8.037109,-3.84975 -8.724609,-3.87695 z m 42.148438,0.25586 c -0.933757,0.16818 -4.254391,1.61042 -8.021485,3.50586 l -7.828125,3.93945 7.976563,4.01563 7.974609,4.01562 0.292969,-7.51367 c 0.16184,-4.13234 0.09632,-7.71033 -0.146485,-7.95312 -0.03035,-0.0303 -0.114653,-0.0338 -0.248046,-0.01 z m 26.2207026,11.69531 c -0.20903,0 -4.0854044,1.87932 -8.6152344,4.17774 l -8.2363282,4.17969 7.3652345,3.77148 c 4.05137,2.07436 7.9296875,3.79507 8.6171875,3.82226 0.89996,0.0356 1.25,-2.19144 1.25,-7.95117 0,-4.4 -0.1718294,-8 -0.3808594,-8 z m -50.1035156,1 c -1.03003,0 -15.515625,7.46888 -15.515625,8 0,0.30922 3.2625,2.21019 7.25,4.22266 3.9875,2.01248 7.5875,3.6841 8,3.7168 0.4125,0.0327 0.75,-3.53946 0.75,-7.93946 0,-4.4 -0.218475,-8 -0.484375,-8 z m 5.966797,0 c -0.2659,0 -0.482422,3.6 -0.482422,8 0,4.4 0.216522,8 0.482422,8 1.02907,0 15.517578,-7.46943 15.517578,-8 0,-0.53057 -14.488508,-8 -15.517578,-8 z m 24.517578,11.97657 0,8.5039 0,8.50391 8.4609375,-4.19531 c 4.65434,-2.30831 8.36684,-4.27816 8.25,-4.37696 -0.11684,-0.0987 -3.9234375,-2.03657 -8.4609375,-4.30664 l -8.25,-4.1289 z m -49.517578,1.02343 c -0.2659,0 -0.482422,3.6 -0.482422,8 0,4.4 0.251627,8 0.560547,8 1.20302,0 15.439453,-7.29199 15.439453,-7.9082 0,-0.59346 -14.379658,-8.0918 -15.517578,-8.0918 z m 19.517578,12.97657 -8,4.02343 c -4.4,2.21228 -8,4.23584 -8,4.49805 0,0.2622 3.4875,2.26029 7.75,4.43945 4.2625,2.17916 7.8625,3.98422 8,4.01172 0.1375,0.0275 0.25,-3.7798 0.25,-8.46094 l 0,-8.51171 z m 48.75,0.0723 c -0.6875,0.0272 -4.6140094,1.77082 -8.7246094,3.875 l -7.4726566,3.82617 7.9726566,4.07422 c 4.3856,2.2411 8.3121094,4.0975 8.7246094,4.125 0.4125,0.0275 0.75,-3.54922 0.75,-7.94922 0,-5.75973 -0.35004,-7.98677 -1.25,-7.95117 z"
       id="rect4211" />
    <path
       inkscape:connector-curvature="0"
       style="opacity:1;fill:#ef2929;fill-opacity:1;stroke:#ef2929;stroke-width:2;stroke-linecap:round;stroke-linejoin:round;stroke-miterlimit:4;stroke-dasharray:none;stroke-dashoffset:0;stroke-opacity:1"
       d="m -407.875,546.04102 0,8.51171 c 0,4.68114 0.23427,8.51172 0.52148,8.51172 0.97773,0 16.68714,-8.12522 16.33204,-8.44726 -0.19442,-0.17631 -4.06602,-2.1772 -8.60352,-4.44727 l -8.25,-4.1289 z m -6.52344,0.0234 c -1.98548,0 -17.47656,7.79065 -17.47656,8.78907 0,0.42163 3.7125,2.63989 8.25,4.92968 4.5375,2.28979 8.8125,4.19026 9.5,4.22266 0.91178,0.043 1.25,-2.37662 1.25,-8.94141 0,-7.39166 -0.27326,-9 -1.52344,-9 z m -18.72656,12.16602 c -0.4125,-0.18334 -0.75,4.20192 -0.75,9.74414 l 0,10.07617 9.5,-4.71875 c 5.225,-2.59552 9.5,-4.99412 9.5,-5.33008 0,-0.4646 -13.1422,-7.50135 -18.25,-9.77148 z m 50.25,0.81055 0,8.86914 0,8.86914 8.57227,-4.44922 c 4.7155,-2.448 8.428,-4.58229 8.25,-4.74219 -0.178,-0.1599 -4.03477,-2.1479 -8.57227,-4.41797 l -8.25,-4.1289 z m -5,0.0371 -8.5,4.2168 c -4.675,2.31856 -8.5,4.46618 -8.5,4.77344 0,0.30726 3.2625,2.20628 7.25,4.21875 3.9875,2.01248 7.8125,3.6841 8.5,3.7168 0.90654,0.0431 1.25,-2.27244 1.25,-8.43164 l 0,-8.49415 z m 25,13.16016 -8.47852,4.16211 c -4.66286,2.28971 -8.4879,4.40114 -8.5,4.69141 -0.0121,0.29027 3.69102,2.40161 8.22852,4.6914 4.5375,2.28979 8.3625,4.19026 8.5,4.22266 0.1375,0.0324 0.25,-3.95327 0.25,-8.85547 l 0,-8.91211 z m -51.52344,0.82617 c -0.28721,0 -4.15148,1.8241 -8.58789,4.05469 l -8.0664,4.05664 7.83789,3.8711 c 4.31112,2.12927 8.17734,3.90521 8.58984,3.94531 0.4125,0.0401 0.75,-3.52774 0.75,-7.92774 0,-4.4 -0.23623,-8 -0.52344,-8 z m 26.08008,12 c -0.24376,0 -4.31612,1.95961 -9.04883,4.35547 l -8.60547,4.35742 8.29883,4.06446 c 4.56396,2.23632 8.63633,4.10173 9.04883,4.14453 0.4125,0.0428 0.75,-3.74688 0.75,-8.42188 0,-4.675 -0.19961,-8.5 -0.44336,-8.5 z m -44.42383,1 c -0.34882,0 -0.63281,3.825 -0.63281,8.5 0,4.675 0.225,8.47682 0.5,8.44922 0.275,-0.0276 4.29139,-1.98488 8.92578,-4.34961 l 8.42578,-4.29883 -8.29101,-4.15039 c -4.56058,-2.28264 -8.57893,-4.15039 -8.92774,-4.15039 z m 50.38867,0 c -0.28721,0 -0.52148,3.83058 -0.52148,8.51172 l 0,8.50977 8.25,-4.12696 c 4.5375,-2.27008 8.4091,-4.27095 8.60352,-4.44726 0.3551,-0.32205 -15.35431,-8.44727 -16.33204,-8.44727 z m -25.52148,12.11524 0,8.44336 c 0,4.64312 0.23427,8.4414 0.52148,8.4414 0.93974,0 16.69492,-8.11874 16.33204,-8.41601 -0.19442,-0.15926 -4.06602,-2.1298 -8.60352,-4.37891 l -8.25,-4.08984 z m -6,0.89843 -8.51562,4.22461 -8.51758,4.22266 8.26758,4.21875 c 4.5463,2.32044 8.37812,4.24193 8.51562,4.26953 0.1375,0.0276 0.25,-3.77041 0.25,-8.4414 l 0,-8.49415 z m -19,13.03711 c -0.275,-0.0276 -0.5,3.77422 -0.5,8.44922 0,4.675 0.34677,8.5 0.77148,8.5 0.42471,0 4.46425,-1.85625 8.97657,-4.125 l 8.20507,-4.125 -8.47656,-4.32422 c -4.66202,-2.37862 -8.70156,-4.3474 -8.97656,-4.375 z m 18.51562,13.94922 c -1.03003,0 -15.51562,7.46888 -15.51562,8 0,0.30922 3.2625,2.21019 7.25,4.22266 3.9875,2.01248 7.5875,3.6841 8,3.7168 0.4125,0.0327 0.75,-3.53946 0.75,-7.93946 0,-4.4 -0.21848,-8 -0.48438,-8 z m -17.91992,13 c -0.2468,0 -0.59552,3.77501 -0.77343,8.38867 l -0.32227,8.38868 7.5,-3.7461 c 4.125,-2.06049 8.175,-3.9671 9,-4.23632 0.89144,-0.29091 -1.83877,-2.17468 -6.72852,-4.64258 -4.52529,-2.28396 -8.42898,-4.15235 -8.67578,-4.15235 z m 18.09571,13.35938 c -0.21602,-0.21601 -4.13952,1.48147 -8.71875,3.77344 l -8.32618,4.16796 8.42774,4.24024 8.42578,4.23828 0.29102,-8.01367 c 0.16085,-4.40791 0.1164,-8.19023 -0.0996,-8.40625 z"
       id="rect4184" />
    <path
       inkscape:connector-curvature="0"
       style="opacity:1;fill:#f57900;fill-opacity:1;stroke:#f57900;stroke-width:2;stroke-linecap:round;stroke-linejoin:round;stroke-miterlimit:4;stroke-dasharray:none;stroke-dashoffset:0;stroke-opacity:1"
       d="m -334.875,546.04102 -8.25,4.1289 c -4.5375,2.27007 -8.40946,4.27132 -8.60352,4.44727 -0.19405,0.17596 3.18095,2.12636 7.5,4.33398 4.31906,2.20762 8.19102,4.035 8.60352,4.0625 0.4125,0.0275 0.75,-3.7798 0.75,-8.46094 l 0,-8.51171 z m 6.58203,0.88671 c -1.91213,-0.13522 -1.58203,2.17177 -1.58203,7.66211 0,4.66139 0.18212,8.47461 0.4043,8.47461 0.22218,0 4.30396,-1.87216 9.07226,-4.16015 l 8.66992,-4.16016 -6.82421,-3.41797 c -5.41079,-2.71089 -8.25302,-4.29326 -9.74024,-4.39844 z m -26.58203,12.15039 0,8.98633 0,8.98438 8.5,-4.21485 c 4.675,-2.31856 8.5,-4.46467 8.5,-4.76953 0,-0.30486 -3.825,-2.45097 -8.5,-4.76953 l -8.5,-4.2168 z m 45,0.10157 -8.25,4.08984 c -4.5375,2.24911 -8.40946,4.22001 -8.60352,4.37891 -0.19405,0.1589 3.18095,2.09511 7.5,4.30273 4.31906,2.20762 8.19102,4.035 8.60352,4.0625 0.4125,0.0275 0.75,-3.7475 0.75,-8.39062 l 0,-8.44336 z m 6.48242,0.88476 c -0.2659,0 -0.48242,3.6 -0.48242,8 0,4.4 0.21652,8 0.48242,8 1.02907,0 15.51758,-7.46943 15.51758,-8 0,-0.53057 -14.48851,-8 -15.51758,-8 z m 17.99414,13 c -0.28721,0 -4.15148,1.8241 -8.58789,4.05469 l -8.0664,4.05664 7.83789,3.8711 c 4.31112,2.12927 8.17734,3.90521 8.58984,3.94531 0.4125,0.0401 0.75,-3.52774 0.75,-7.92774 0,-4.4 -0.23623,-8 -0.52344,-8 z m -50.08984,0.31055 c -0.97967,0.19268 -4.50101,1.73639 -8.50977,3.75195 l -8.33007,4.1875 8.47656,4.26563 8.47656,4.26367 0.29102,-8.01367 c 0.16085,-4.40791 0.0949,-8.21169 -0.14649,-8.45313 -0.0302,-0.0302 -0.11786,-0.0295 -0.25781,-0.002 z m 25.61328,11.66602 -8.25,4.1289 c -4.5375,2.27007 -8.40946,4.27132 -8.60352,4.44727 -0.19405,0.17596 3.18095,2.12636 7.5,4.33398 4.31906,2.20762 8.19102,4.035 8.60352,4.0625 0.4125,0.0275 0.75,-3.7798 0.75,-8.46094 l 0,-8.51171 z m 6.38281,1.02343 c -0.21131,0 -0.38281,3.83058 -0.38281,8.51172 l 0,8.50977 8.25,-4.12696 c 4.5375,-2.27007 8.39252,-4.25632 8.56836,-4.41406 0.30091,-0.26993 -15.6115,-8.48047 -16.43555,-8.48047 z m -50.63281,0.0508 c -0.4125,-0.0276 -0.75,3.75693 -0.75,8.41016 l 0,8.45899 8.83789,-4.20899 8.83789,-4.21094 -8.08789,-4.19922 c -4.44846,-2.30988 -8.42539,-4.2224 -8.83789,-4.25 z m 24.25,11.96289 0,8.49415 c 0,4.89989 0.41501,8.49218 0.98242,8.49218 1.37039,0 16.01758,-7.3119 16.01758,-7.99609 0,-0.30682 -3.825,-2.45487 -8.5,-4.77344 l -8.5,-4.2168 z m -5.3418,0.98633 c -0.63513,0 -13.14724,6.32119 -15.02734,7.5918 -1.68708,1.14016 -1.10182,1.6553 6,5.28516 4.32819,2.21222 8.20664,4.04476 8.61914,4.07226 0.4125,0.0275 0.75,-3.77422 0.75,-8.44922 0,-4.675 -0.15464,-8.5 -0.3418,-8.5 z m -19.6582,12.97657 0,8.51171 c 0,4.68114 0.23427,8.51172 0.52148,8.51172 0.97773,0 16.68714,-8.12518 16.33204,-8.44726 -0.19441,-0.17631 -4.06602,-2.1772 -8.60352,-4.44727 l -8.25,-4.1289 z m 45,0 -8.25,4.1289 c -4.5375,2.27007 -8.40946,4.27132 -8.60352,4.44727 -0.19405,0.17596 3.18095,2.12636 7.5,4.33398 4.31906,2.20762 8.19102,4.035 8.60352,4.0625 0.4125,0.0275 0.75,-3.7798 0.75,-8.46094 l 0,-8.51171 z m 6,0 0,8.51171 c 0,4.68114 0.23427,8.51172 0.52148,8.51172 0.97773,0 16.68714,-8.12522 16.33204,-8.44726 -0.19441,-0.17631 -4.06602,-2.1772 -8.60352,-4.44727 l -8.25,-4.1289 z m -31,13.0371 -8.5,4.2168 c -4.675,2.31856 -8.47411,4.45226 -8.44141,4.74219 0.0327,0.28993 3.74523,2.36986 8.25,4.62305 4.50477,2.25318 8.30391,4.1657 8.44141,4.25 0.1375,0.0843 0.25,-3.8919 0.25,-8.83789 l 0,-8.99415 z m 49.51562,0.98633 c -1.03003,0 -15.51562,7.46888 -15.51562,8 0,0.30922 3.2625,2.21019 7.25,4.22266 3.9875,2.01248 7.5875,3.6841 8,3.7168 0.4125,0.0327 0.75,-3.53946 0.75,-7.93946 0,-4.4 -0.21848,-8 -0.48438,-8 z m -69.51562,12.17383 0,8.90625 0,8.9043 8.5,-4.21485 c 4.675,-2.31856 8.48866,-4.45225 8.47656,-4.74218 -0.0121,-0.28993 -3.83714,-2.4017 -8.5,-4.69141 l -8.47656,-4.16211 z m 51.52148,0.82617 c -0.28721,0 -0.52148,3.6 -0.52148,8 0,4.4 0.1917,8 0.42578,8 0.23409,0 4.09615,-1.77504 8.58399,-3.94531 l 8.16015,-3.94726 -8.0625,-4.05274 c -4.43472,-2.22973 -8.29873,-4.05469 -8.58594,-4.05469 z m -32.13476,13.31055 c -0.97967,0.19268 -4.50101,1.73639 -8.50977,3.75195 l -8.33007,4.1875 8.47656,4.26563 8.47656,4.26367 0.29102,-8.01367 c 0.16085,-4.40791 0.0949,-8.21169 -0.14649,-8.45313 -0.0302,-0.0302 -0.11786,-0.0295 -0.25781,-0.002 z m 50.30469,0.0488 c -0.21602,-0.21601 -4.13952,1.48147 -8.71875,3.77344 l -8.32618,4.16796 8.42774,4.24024 8.42578,4.23828 0.29102,-8.01367 c 0.16085,-4.40791 0.1164,-8.19023 -0.0996,-8.40625 z"
       id="rect4189" />
    <path
       inkscape:connector-curvature="0"
       style="opacity:1;fill:#fffd00;fill-opacity:1;stroke:#fffd00;stroke-width:2;stroke-linecap:round;stroke-linejoin:round;stroke-miterlimit:4;stroke-dasharray:none;stroke-dashoffset:0;stroke-opacity:1"
       d="m -256.31836,546.06445 c -0.24375,0 -4.31612,1.95961 -9.04883,4.35547 l -8.60547,4.35742 8.29883,4.06446 c 4.56396,2.23632 8.63633,4.10173 9.04883,4.14453 0.4125,0.0428 0.75,-3.74688 0.75,-8.42188 0,-4.675 -0.19961,-8.5 -0.44336,-8.5 z m -19.55664,13.11524 0,8.44336 c 0,4.64312 0.23427,8.4414 0.52148,8.4414 0.93974,0 16.69492,-8.11874 16.33204,-8.41601 -0.19441,-0.15926 -4.06602,-2.1298 -8.60352,-4.37891 l -8.25,-4.08984 z m 19.41602,14.03515 c -1.50104,-0.12818 -16.41602,6.93626 -16.41602,7.82813 0,0.31765 3.7125,2.41874 8.25,4.66992 l 8.25,4.09375 0.29102,-7.99609 c 0.16085,-4.39727 0.0393,-8.2498 -0.27149,-8.56055 -0.0195,-0.0195 -0.0551,-0.031 -0.10351,-0.0352 z m -18.89454,12.84961 c -0.28721,0 -0.52148,3.83058 -0.52148,8.51172 l 0,8.50977 8.25,-4.12696 c 4.5375,-2.27008 8.40911,-4.27095 8.60352,-4.44726 0.3551,-0.32205 -15.35431,-8.44727 -16.33204,-8.44727 z m 18.99219,13 c -0.26692,0 -4.32373,1.90354 -9.01562,4.23047 l -8.53125,4.23047 8.26758,4.21875 c 4.54629,2.32044 8.60312,4.24193 9.01562,4.26953 0.4125,0.0276 0.75,-3.77422 0.75,-8.44922 0,-4.675 -0.21942,-8.5 -0.48633,-8.5 z m -19.51367,12.97657 0,8.51171 c 0,4.68114 0.23427,8.51172 0.52148,8.51172 0.97773,0 16.68714,-8.12522 16.33204,-8.44726 -0.19441,-0.17631 -4.06602,-2.1772 -8.60352,-4.44727 l -8.25,-4.1289 z m 20,13.0371 -8.5,4.2168 c -4.675,2.31856 -8.5,4.46618 -8.5,4.77344 0,0.30726 3.2625,2.20628 7.25,4.21875 3.9875,2.01248 7.8125,3.6841 8.5,3.7168 0.90654,0.0431 1.25,-2.27244 1.25,-8.43164 l 0,-8.49415 z m -19.47852,13.98633 c -0.28721,0 -0.52148,3.83058 -0.52148,8.51172 l 0,8.50977 8.25,-4.12696 c 4.5375,-2.27007 8.40911,-4.27095 8.60352,-4.44726 0.3551,-0.32204 -15.35431,-8.44727 -16.33204,-8.44727 z m 18.99219,13 c -0.26692,0 -4.32373,1.90354 -9.01562,4.23047 l -8.53125,4.23047 8.26758,4.21875 c 4.54629,2.32044 8.60312,4.24193 9.01562,4.26953 0.4125,0.0276 0.75,-3.77422 0.75,-8.44922 0,-4.675 -0.21942,-8.5 -0.48633,-8.5 z"
       id="rect4196" />
    <path
       inkscape:connector-curvature="0"
       style="opacity:1;fill:#7eff00;fill-opacity:1;stroke:#7eff00;stroke-width:2.5;stroke-linecap:round;stroke-linejoin:round;stroke-miterlimit:4;stroke-dasharray:none;stroke-dashoffset:0;stroke-opacity:1"
       d="m -227.875,546.04102 -8.25,4.1289 c -4.5375,2.27007 -8.40946,4.27132 -8.60352,4.44727 -0.19405,0.17596 3.18095,2.12636 7.5,4.33398 4.31906,2.20762 8.19102,4.035 8.60352,4.0625 0.4125,0.0275 0.75,-3.7798 0.75,-8.46094 l 0,-8.51171 z m 5,0 0,8.51171 c 0,4.68114 0.23427,8.51172 0.52148,8.51172 0.97773,0 16.68714,-8.12522 16.33204,-8.44726 -0.19441,-0.17631 -4.06602,-2.1772 -8.60352,-4.44727 l -8.25,-4.1289 z m -25,13 0,8.86914 0,8.86914 8.57227,-4.44922 c 4.7155,-2.448 8.428,-4.58229 8.25,-4.74219 -0.178,-0.15991 -4.03477,-2.1479 -8.57227,-4.41797 l -8.25,-4.1289 z m 20,13.19726 -8.47852,4.16211 c -4.66286,2.2897 -8.4879,4.40114 -8.5,4.69141 -0.0121,0.29027 3.69102,2.40161 8.22852,4.6914 4.5375,2.28979 8.3625,4.19026 8.5,4.22266 0.1375,0.0324 0.25,-3.95327 0.25,-8.85547 l 0,-8.91211 z m -19.47852,13.82617 c -0.28721,0 -0.52148,3.83058 -0.52148,8.51172 l 0,8.50977 8.25,-4.12696 c 4.5375,-2.27008 8.40911,-4.27095 8.60352,-4.44726 0.3551,-0.32205 -15.35431,-8.44727 -16.33204,-8.44727 z m 18.99219,13 c -0.26692,0 -4.32373,1.90354 -9.01562,4.23047 l -8.53125,4.23047 8.26758,4.21875 c 4.5463,2.32044 8.60312,4.24193 9.01562,4.26953 0.4125,0.0276 0.75,-3.77422 0.75,-8.44922 0,-4.675 -0.21942,-8.5 -0.48633,-8.5 z m 5.97071,0 c -0.26691,0 -0.48438,3.825 -0.48438,8.5 0,4.675 0.3375,8.47682 0.75,8.44922 0.4125,-0.0276 4.46932,-1.94909 9.01562,-4.26953 l 8.26563,-4.21875 -8.53125,-4.23047 c -4.69189,-2.32693 -8.74871,-4.23047 -9.01562,-4.23047 z m 19.51562,12.97657 -8.25,4.1289 c -4.5375,2.27007 -8.40946,4.27132 -8.60352,4.44727 -0.19405,0.17596 3.18095,2.12636 7.5,4.33398 4.31906,2.20762 8.19102,4.035 8.60352,4.0625 0.4125,0.0275 0.75,-3.7798 0.75,-8.46094 l 0,-8.51171 z m -20,13.0371 0,8.98633 0,8.98438 8.5,-4.21485 c 4.675,-2.31856 8.5,-4.46467 8.5,-4.76953 0,-0.30486 -3.825,-2.45097 -8.5,-4.76953 l -8.5,-4.2168 z m 19.38672,14.29688 c -0.97967,0.19268 -4.50101,1.73639 -8.50977,3.75195 l -8.33007,4.1875 8.47656,4.26563 8.47656,4.26367 0.29102,-8.01367 c 0.16085,-4.40791 0.0949,-8.21169 -0.14649,-8.45313 -0.0302,-0.0302 -0.11786,-0.0295 -0.25781,-0.002 z m -18.63672,12.74023 c -0.4125,-0.0276 -0.75,3.75693 -0.75,8.41016 l 0,8.45899 8.83789,-4.20899 8.83789,-4.21094 -8.08789,-4.19922 c -4.44846,-2.30987 -8.42539,-4.2224 -8.83789,-4.25 z m -6.05859,0.3086 c -0.21602,-0.21601 -4.13952,1.48147 -8.71875,3.77344 l -8.32618,4.16796 8.42774,4.24024 8.42578,4.23828 0.29102,-8.01367 c 0.16085,-4.40791 0.1164,-8.19023 -0.0996,-8.40625 z"
       id="rect4201" />
    <path
       inkscape:connector-curvature="0"
       style="opacity:1;fill:#0070ff;fill-opacity:1;stroke:#0070ff;stroke-width:4;stroke-linecap:round;stroke-linejoin:round;stroke-miterlimit:4;stroke-dasharray:none;stroke-dashoffset:0;stroke-opacity:1"
       d="m -174.875,547.03906 -7.25,3.62891 c -3.9875,1.99639 -7.40816,3.77446 -7.60156,3.94922 -0.1934,0.17476 2.7316,1.89831 6.5,3.83203 3.7684,1.93371 7.18906,3.5393 7.60156,3.5664 0.4125,0.0271 0.75,-3.33293 0.75,-7.46484 l 0,-7.51172 z m 55,0 0,7.51172 c 0,4.13191 0.23471,7.51367 0.52344,7.51367 0.97437,0 14.68387,-7.12572 14.32812,-7.44726 -0.19386,-0.17522 -3.61406,-1.95283 -7.60156,-3.94922 l -7.25,-3.62891 z m -48.25,1.07422 c -0.4125,-0.0267 -0.75,3.10598 -0.75,6.96289 l 0,7.01367 7.2207,-3.63672 7.22071,-3.63671 -6.47071,-3.32813 c -3.55915,-1.83014 -6.8082,-3.3483 -7.2207,-3.375 z m 41.66992,0.24805 c -0.84207,0.11905 -3.75749,1.35637 -7.04101,3.01172 l -6.82227,3.4414 6.9707,3.51758 6.97266,3.51953 0.29688,-6.51172 c 0.1641,-3.58144 0.0992,-6.71327 -0.14649,-6.95898 -0.0307,-0.0307 -0.11017,-0.0365 -0.23047,-0.0195 z m -67.41992,11.98633 0,7.35742 c 0,4.04712 0.21588,7.35937 0.48047,7.35937 0.99943,0 13.51872,-6.45342 13.51172,-6.96484 -0.004,-0.29445 -3.15419,-2.15991 -7,-4.14453 l -6.99219,-3.60742 z m 93,0 -6.99219,3.60742 c -3.84581,1.98462 -6.996,3.85144 -7,4.14648 -0.004,0.29504 2.80469,1.95502 6.24219,3.68946 3.4375,1.73444 6.5875,3.17989 7,3.21289 0.4125,0.033 0.75,-3.25171 0.75,-7.29883 l 0,-7.35742 z m -50.48242,0.71679 c -1.03777,0 -13.51758,6.46256 -13.51758,7 0,0.31449 2.8125,1.99213 6.25,3.72657 3.4375,1.73444 6.5875,3.17989 7,3.21289 0.4125,0.033 0.75,-3.08946 0.75,-6.93946 0,-3.85 -0.21783,-7 -0.48242,-7 z m 7.96289,0 c -0.26459,0 -0.48047,3.15 -0.48047,7 0,3.85 0.21588,7 0.48047,7 1.03652,0 13.51953,-6.4633 13.51953,-7 0,-0.5367 -12.48301,-7 -13.51953,-7 z m 49.999999,0 c -0.26459,0 -0.480469,3.18816 -0.480469,7.08399 0,3.89584 0.373148,6.93334 0.830078,6.75 3.50514,-1.40636 13.14575,-6.44 13.15625,-6.86914 0.01253,-0.51066 -12.503059,-6.96485 -13.505859,-6.96485 z m 17.037109,13 c -1.03777,0 -13.517578,6.46256 -13.517578,7 0,0.31449 2.8125,1.99213 6.25,3.72657 3.4375,1.73444 6.5875,3.17989 7,3.21289 0.4125,0.033 0.75,-3.08946 0.75,-6.93946 0,-3.85 -0.217832,-7 -0.482422,-7 z m -50.349608,0.16602 c -3.50936,1.40806 -13.14575,6.44115 -13.15625,6.87109 -0.007,0.29504 2.80078,1.95502 6.23828,3.68946 3.4375,1.73444 6.5875,3.17989 7,3.21289 0.4125,0.033 0.75,-3.12761 0.75,-7.02344 0,-3.89584 -0.3751,-6.93334 -0.83203,-6.75 z m -48.75781,0.13476 c -0.8878,0.14378 -4.00574,1.48435 -7.53125,3.25977 l -7.32618,3.68945 7.47266,3.76758 7.47461,3.76758 0.29492,-7.01367 c 0.16293,-3.85705 0.0976,-7.21296 -0.14648,-7.45703 -0.0305,-0.0305 -0.11146,-0.0342 -0.23828,-0.0137 z m -18.10157,12.69922 c -0.17051,0 -0.30859,3.37981 -0.30859,7.51172 l 0,7.51367 7.25,-3.63086 c 3.9875,-1.99639 7.39863,-3.76492 7.58203,-3.92968 0.29223,-0.26253 -13.72053,-7.46485 -14.52344,-7.46485 z m 49.69141,0.0156 0,7.45117 0,7.45117 7.25,-3.6289 c 3.9875,-1.99595 7.3467,-3.68702 7.46484,-3.75782 0.11814,-0.0708 -3.14436,-1.79074 -7.25,-3.82226 l -7.46484,-3.69336 z m 50,0 0,6.99219 c 0,3.84549 0.187789,6.99218 0.417969,6.99218 0.23019,0 3.553745,-1.50192 7.384765,-3.33789 l 6.964844,-3.33789 -7.384766,-3.65429 -7.382812,-3.6543 z m -32,13 -7.51953,3.7207 -7.51758,3.7207 7.26758,3.72071 c 3.99749,2.04723 7.38203,3.74624 7.51953,3.77343 0.1375,0.0272 0.25,-3.32285 0.25,-7.44335 l 0,-7.49219 z m 50,0 -7.519531,3.7207 -7.517578,3.7207 7.267578,3.72071 c 3.99749,2.04723 7.382031,3.74624 7.519531,3.77343 0.1375,0.0272 0.25,-3.32285 0.25,-7.44335 l 0,-7.49219 z m -99.9668,0.54297 c -0.31455,-0.005 -0.73056,0.14874 -1.2832,0.36328 -3.63201,1.40995 -12.81278,6.34932 -12.45898,6.70312 0.17861,0.1786 3.22473,1.89139 6.76757,3.80664 3.54284,1.91525 6.77891,3.50199 7.19141,3.52539 0.4125,0.0234 0.75,-3.32025 0.75,-7.43164 0,-5.50818 -0.0231,-6.95203 -0.9668,-6.96679 z m -18.0332,12.41601 0,7.51172 c 0,4.13191 0.13808,7.51367 0.30859,7.51367 0.80291,0 14.81567,-7.20426 14.52344,-7.46679 -0.1834,-0.16476 -3.59453,-1.9333 -7.58203,-3.92969 l -7.25,-3.62891 z m 50,0.10547 0,7.45117 0,7.45118 7.46484,-3.69336 c 4.10564,-2.03153 7.36814,-3.75147 7.25,-3.82227 -0.11814,-0.0708 -3.47734,-1.76186 -7.46484,-3.75781 l -7.25,-3.62891 z m 50.75,0.96875 c -0.4125,-0.0267 -0.75,3.10598 -0.75,6.96289 l 0,7.01367 7.220703,-3.63672 7.220703,-3.63671 -6.470703,-3.32813 c -3.55915,-1.83014 -6.808203,-3.3483 -7.220703,-3.375 z m -33.23242,12.95117 c -1.01034,0 -13.51639,6.45588 -13.49219,6.96485 0.014,0.29445 2.82653,1.9617 6.25,3.70508 3.42347,1.74336 6.56211,3.2059 6.97461,3.25 0.4125,0.0441 0.75,-3.06993 0.75,-6.91993 0,-3.85 -0.21783,-7 -0.48242,-7 z m 49.999998,0 c -1.03777,0 -13.517578,6.46256 -13.517578,7 0,0.31449 2.8125,1.99213 6.25,3.72657 3.4375,1.73445 6.5875,3.17989 7,3.21289 0.4125,0.033 0.75,-3.08946 0.75,-6.93946 0,-3.85 -0.217832,-7 -0.482422,-7 z m -99.767578,0.0488 c -0.6875,0.0267 -4.16228,1.54523 -7.7207,3.375 l -6.46875,3.32617 6.96875,3.57617 c 3.83342,1.9665 7.3082,3.598 7.7207,3.625 0.4125,0.0271 0.75,-3.10117 0.75,-6.95117 0,-4.95921 -0.36443,-6.98557 -1.25,-6.95117 z m -17.22656,12.95117 c -0.28873,0 -0.52344,3.43071 -0.52344,7.62305 0,6.0673 0.25976,7.40541 1.27539,6.5625 0.70178,-0.58242 4.12566,-2.40715 7.60938,-4.05469 l 6.33398,-2.99609 -7.08398,-3.56641 c -3.89677,-1.96239 -7.3226,-3.56836 -7.61133,-3.56836 z m 49.95703,0 c -0.26459,0 -0.48047,3.15 -0.48047,7 0,3.85 0.21588,7 0.48047,7 1.03652,0 13.51953,-6.4633 13.51953,-7 0,-0.5367 -12.48301,-7 -13.51953,-7 z m 50.349608,0.16602 c -0.45693,-0.18334 -0.830078,2.85416 -0.830078,6.75 0,3.89583 0.215879,7.08398 0.480469,7.08398 1.0028,0 13.518389,-6.45421 13.505859,-6.96484 -0.01054,-0.42915 -9.65111,-5.46278 -13.15625,-6.86914 z m -32.830078,12.84961 -7.38867,3.65625 -7.38672,3.65429 6.63672,3.26172 c 3.65064,1.79392 6.97617,3.29679 7.38867,3.33789 0.4125,0.0411 0.75,-3.07247 0.75,-6.91796 l 0,-6.99219 z m 50,0 -7.462891,3.69336 -7.46289,3.69336 7.21289,3.71484 c 3.9671,2.04362 7.325391,3.75293 7.462891,3.79883 0.1375,0.0459 0.25,-3.28771 0.25,-7.4082 l 0,-7.49219 z m -99.58984,0.28515 c -0.8878,0.14378 -4.00574,1.48435 -7.53125,3.25977 l -7.32618,3.68945 7.47266,3.76758 7.47461,3.76758 0.29492,-7.01367 c 0.16293,-3.85705 0.0976,-7.21296 -0.14648,-7.45703 -0.0305,-0.0305 -0.11146,-0.0342 -0.23828,-0.0137 z"
       id="rect4206" />
  </g>
</svg>
