<?xml version="1.0" encoding="UTF-8" standalone="no"?>
<!-- Created with Inkscape (http://www.inkscape.org/) -->

<svg
   xmlns:dc="http://purl.org/dc/elements/1.1/"
   xmlns:cc="http://creativecommons.org/ns#"
   xmlns:rdf="http://www.w3.org/1999/02/22-rdf-syntax-ns#"
   xmlns:svg="http://www.w3.org/2000/svg"
   xmlns="http://www.w3.org/2000/svg"
   xmlns:sodipodi="http://sodipodi.sourceforge.net/DTD/sodipodi-0.dtd"
   xmlns:inkscape="http://www.inkscape.org/namespaces/inkscape"
   width="210mm"
   height="297mm"
   viewBox="0 0 744.09448819 1052.3622047"
   id="svg2"
   version="1.1"
   inkscape:version="0.91 r13725"
   sodipodi:docname="lampe.svg">
  <defs
     id="defs4" />
  <sodipodi:namedview
     id="base"
     pagecolor="#404040"
     bordercolor="#666666"
     borderopacity="1.0"
     inkscape:pageopacity="0"
     inkscape:pageshadow="2"
     inkscape:zoom="0.16"
     inkscape:cx="-586.61173"
     inkscape:cy="331.04586"
     inkscape:document-units="px"
     inkscape:current-layer="layer1"
     showgrid="false"
     inkscape:window-width="1366"
     inkscape:window-height="745"
     inkscape:window-x="-8"
     inkscape:window-y="-8"
     inkscape:window-maximized="1" />
  <metadata
     id="metadata7">
    <rdf:RDF>
      <cc:Work
         rdf:about="">
        <dc:format>image/svg+xml</dc:format>
        <dc:type
           rdf:resource="http://purl.org/dc/dcmitype/StillImage" />
        <dc:title></dc:title>
      </cc:Work>
    </rdf:RDF>
  </metadata>
  <g
     inkscape:label="Ebene 1"
     inkscape:groupmode="layer"
     id="layer1">
    <g
       id="g4182"
       style="opacity:1;fill:#0000ff;fill-opacity:1"
       transform="translate(-325,687.5)">
      <ellipse
         ry="216.55145"
         rx="477.29709"
         cy="1167.2671"
         cx="-618.71844"
         id="path4159"
         style="opacity:1;fill:#0000ff;fill-opacity:1;stroke:none;stroke-width:5;stroke-linecap:round;stroke-linejoin:round;stroke-miterlimit:4;stroke-dasharray:none;stroke-opacity:1" />
      <path
         inkscape:connector-curvature="0"
         id="path4161"
         d="M 141.42136,71.251543 -1078.3378,1100.9758 -150.26019,1176.1059 247.48737,146.38164 Z"
         style="fill:#0000ff;fill-rule:evenodd;stroke:none;stroke-width:1px;stroke-linecap:butt;stroke-linejoin:miter;stroke-opacity:1;fill-opacity:1" />
    </g>
    <g
       id="g4163">
      <path
         inkscape:connector-curvature="0"
         id="path4136"
         d="m 347.33008,826.08789 c -8.864,0 -16,7.136 -16,16 l 0,94.51953 a 117.1777,69.700523 0 0 0 -64.65039,62.2168 117.1777,69.700523 0 0 0 0.0605,1.00976 l 234.21094,0 a 117.1777,69.700523 0 0 0 0.084,-1.00976 117.1777,69.700523 0 0 0 -62.62891,-61.64063 l 0,-95.0957 c 0,-8.864 -7.136,-16 -16,-16 l -75.07617,0 z m 42.58789,28.28516 a 34.345188,34.345188 0 0 1 34.3457,34.34375 34.345188,34.345188 0 0 1 -34.3457,34.3457 34.345188,34.345188 0 0 1 -34.34375,-34.3457 34.345188,34.345188 0 0 1 34.34375,-34.34375 z"
         style="opacity:1;fill:#000000;fill-opacity:1;stroke:none;stroke-width:5;stroke-linecap:round;stroke-linejoin:round;stroke-miterlimit:4;stroke-dasharray:none;stroke-opacity:1" />
      <rect
         transform="matrix(0.61773164,0.78638897,-0.78638897,0.61773164,0,0)"
         inkscape:transform-center-y="-206.26178"
         inkscape:transform-center-x="-259.30629"
         ry="16"
         rx="16"
         y="-483.1972"
         x="887.4212"
         height="769.73627"
         width="76.771591"
         id="rect4147"
         style="opacity:1;fill:#000000;fill-opacity:1;stroke:none;stroke-width:5;stroke-linecap:round;stroke-linejoin:round;stroke-miterlimit:4;stroke-dasharray:none;stroke-opacity:1" />
      <rect
         style="opacity:1;fill:#000000;fill-opacity:1;stroke:none;stroke-width:5;stroke-linecap:round;stroke-linejoin:round;stroke-miterlimit:4;stroke-dasharray:none;stroke-opacity:1"
         id="rect4149"
         width="76.771591"
         height="769.73627"
         x="-124.48708"
         y="-1060.2987"
         rx="16"
         ry="16"
         inkscape:transform-center-x="300.85402"
         inkscape:transform-center-y="-179.86715"
         transform="matrix(-0.51144078,0.85931853,-0.85931853,-0.51144078,0,0)" />
      <rect
         transform="matrix(0.86319389,0.50487256,-0.50487256,0.86319389,0,0)"
         inkscape:transform-center-y="-212.45538"
         inkscape:transform-center-x="367.24215"
         ry="4.6558599"
         rx="16"
         y="-24.394556"
         x="186.17441"
         height="20.268162"
         width="826.73938"
         id="rect4151"
         style="opacity:1;fill:#000000;fill-opacity:1;stroke:none;stroke-width:5;stroke-linecap:round;stroke-linejoin:round;stroke-miterlimit:4;stroke-dasharray:none;stroke-opacity:1" />
      <path
         inkscape:connector-curvature="0"
         id="rect4153"
         d="m 225.48031,-38.621768 c -4.27404,-3.020458 -10.1465,-2.011255 -13.16696,2.262783 l -66.19978,93.674744 c -1.71514,2.426965 -2.12772,5.368227 -1.38423,8.011145 L -112.67422,94.874017 294.52006,382.63755 248.58464,141.06676 c 4.02987,1.77597 8.8599,0.53688 11.50419,-3.20488 l 66.19978,-93.674735 c 3.02046,-4.27404 2.01125,-10.146505 -2.26279,-13.166963 l -98.54551,-69.64195 z"
         style="opacity:1;fill:#000000;fill-opacity:1;stroke:none;stroke-width:2.95216799;stroke-linecap:round;stroke-linejoin:round;stroke-miterlimit:4;stroke-dasharray:none;stroke-opacity:1" />
    </g>
    <path
       style="opacity:1;fill:#ff0000;fill-rule:evenodd;stroke:none;stroke-width:1px;stroke-linecap:butt;stroke-linejoin:miter;stroke-opacity:1;fill-opacity:1"
       d="m -1583.332,-852.3086 -106.0664,75.1309 132.5839,1029.72458 5.8262,-0.49219 a 477.29709,216.55145 0 0 0 475.8906,203.78511 477.29709,216.55145 0 0 0 477.2969,-216.55269 477.29709,216.55145 0 0 0 -22.8164,-65.85742 l 5.1387,-0.4336 -967.8535,-1025.30469 z"
       id="path4190"
       inkscape:connector-curvature="0" />
    <g
       id="g4170"
       transform="matrix(-1,0,0,1,-1972.2289,-1214.4068)">
      <path
         style="opacity:1;fill:#000000;fill-opacity:1;stroke:none;stroke-width:5;stroke-linecap:round;stroke-linejoin:round;stroke-miterlimit:4;stroke-dasharray:none;stroke-opacity:1"
         d="m 347.33008,826.08789 c -8.864,0 -16,7.136 -16,16 l 0,94.51953 a 117.1777,69.700523 0 0 0 -64.65039,62.2168 117.1777,69.700523 0 0 0 0.0605,1.00976 l 234.21094,0 a 117.1777,69.700523 0 0 0 0.084,-1.00976 117.1777,69.700523 0 0 0 -62.62891,-61.64063 l 0,-95.0957 c 0,-8.864 -7.136,-16 -16,-16 l -75.07617,0 z m 42.58789,28.28516 a 34.345188,34.345188 0 0 1 34.3457,34.34375 34.345188,34.345188 0 0 1 -34.3457,34.3457 34.345188,34.345188 0 0 1 -34.34375,-34.3457 34.345188,34.345188 0 0 1 34.34375,-34.34375 z"
         id="path4172"
         inkscape:connector-curvature="0" />
      <rect
         style="opacity:1;fill:#000000;fill-opacity:1;stroke:none;stroke-width:5;stroke-linecap:round;stroke-linejoin:round;stroke-miterlimit:4;stroke-dasharray:none;stroke-opacity:1"
         id="rect4174"
         width="76.771591"
         height="769.73627"
         x="887.4212"
         y="-483.1972"
         rx="16"
         ry="16"
         inkscape:transform-center-x="-259.30629"
         inkscape:transform-center-y="-206.26178"
         transform="matrix(0.61773164,0.78638897,-0.78638897,0.61773164,0,0)" />
      <rect
         transform="matrix(-0.51144078,0.85931853,-0.85931853,-0.51144078,0,0)"
         inkscape:transform-center-y="-179.86715"
         inkscape:transform-center-x="300.85402"
         ry="16"
         rx="16"
         y="-1060.2987"
         x="-124.48708"
         height="769.73627"
         width="76.771591"
         id="rect4176"
         style="opacity:1;fill:#000000;fill-opacity:1;stroke:none;stroke-width:5;stroke-linecap:round;stroke-linejoin:round;stroke-miterlimit:4;stroke-dasharray:none;stroke-opacity:1" />
      <rect
         style="opacity:1;fill:#000000;fill-opacity:1;stroke:none;stroke-width:5;stroke-linecap:round;stroke-linejoin:round;stroke-miterlimit:4;stroke-dasharray:none;stroke-opacity:1"
         id="rect4178"
         width="826.73938"
         height="20.268162"
         x="186.17441"
         y="-24.394556"
         rx="16"
         ry="4.6558599"
         inkscape:transform-center-x="367.24215"
         inkscape:transform-center-y="-212.45538"
         transform="matrix(0.86319389,0.50487256,-0.50487256,0.86319389,0,0)" />
      <path
         style="opacity:1;fill:#000000;fill-opacity:1;stroke:none;stroke-width:2.95216799;stroke-linecap:round;stroke-linejoin:round;stroke-miterlimit:4;stroke-dasharray:none;stroke-opacity:1"
         d="m 225.48031,-38.621768 c -4.27404,-3.020458 -10.1465,-2.011255 -13.16696,2.262783 l -66.19978,93.674744 c -1.71514,2.426965 -2.12772,5.368227 -1.38423,8.011145 L -112.67422,94.874017 294.52006,382.63755 248.58464,141.06676 c 4.02987,1.77597 8.8599,0.53688 11.50419,-3.20488 l 66.19978,-93.674735 c 3.02046,-4.27404 2.01125,-10.146505 -2.26279,-13.166963 l -98.54551,-69.64195 z"
         id="path4180"
         inkscape:connector-curvature="0" />
    </g>
    <path
       style="opacity:1;fill:#00ff00;fill-opacity:1;stroke:none;stroke-width:5;stroke-linecap:round;stroke-linejoin:round;stroke-miterlimit:4;stroke-dasharray:none;stroke-opacity:1"
       d="m -2546.4591,447.03286 -88.3887,39.77356 c -26.9117,205.15123 -80.2492,425.27751 -88.3885,614.29868 -7e-4,57.4332 50.2854,112.5142 139.796,153.1258 89.5106,40.6115 210.9134,63.4269 337.5009,63.4269 126.5874,0 247.9902,-22.8154 337.5008,-63.4269 89.5106,-40.6116 139.7967,-95.6926 139.796,-153.1258 -0.1674,-49.0799 -37.0771,-96.6784 -104.6797,-134.9942 l -2.9941,-2.3984 z"
       id="ellipse4224"
       inkscape:connector-curvature="0"
       sodipodi:nodetypes="cccssscccc" />
    <g
       id="g4232"
       transform="translate(-2260.6155,-761.1898)">
      <path
         style="opacity:1;fill:#000000;fill-opacity:1;stroke:none;stroke-width:5;stroke-linecap:round;stroke-linejoin:round;stroke-miterlimit:4;stroke-dasharray:none;stroke-opacity:1"
         d="m -1179.0799,1568.55 c 8.864,0 16,7.136 16,16 l 0,94.5195 a 117.1777,69.700523 0 0 1 64.6504,62.2168 117.1777,69.700523 0 0 1 -0.061,1.0098 l -234.2109,0 a 117.1777,69.700523 0 0 1 -0.084,-1.0098 117.1777,69.700523 0 0 1 62.6289,-61.6406 l 0,-95.0957 c 0,-8.864 7.136,-16 16,-16 l 75.0762,0 z m -42.5878,28.2852 a 34.345188,34.345188 0 0 0 -34.3457,34.3437 34.345188,34.345188 0 0 0 34.3457,34.3457 34.345188,34.345188 0 0 0 34.3437,-34.3457 34.345188,34.345188 0 0 0 -34.3437,-34.3437 z"
         id="path4196"
         inkscape:connector-curvature="0" />
      <g
         transform="matrix(0.6702772,0,0,1,-412.59895,8.8388348)"
         id="g4211">
        <rect
           transform="matrix(-0.61773164,0.78638897,0.78638897,0.61773164,0,0)"
           inkscape:transform-center-y="-206.26178"
           inkscape:transform-center-x="-259.30629"
           ry="16"
           rx="16"
           y="-678.63373"
           x="1985.0834"
           height="769.73627"
           width="76.771591"
           id="rect4198"
           style="opacity:1;fill:#000000;fill-opacity:1;stroke:none;stroke-width:5;stroke-linecap:round;stroke-linejoin:round;stroke-miterlimit:4;stroke-dasharray:none;stroke-opacity:1" />
        <rect
           style="opacity:1;fill:#000000;fill-opacity:1;stroke:none;stroke-width:5;stroke-linecap:round;stroke-linejoin:round;stroke-miterlimit:4;stroke-dasharray:none;stroke-opacity:1"
           id="rect4200"
           width="76.771591"
           height="769.73627"
           x="88.133621"
           y="-2154.7622"
           rx="16"
           ry="16"
           inkscape:transform-center-x="300.85402"
           inkscape:transform-center-y="-179.86715"
           transform="matrix(0.51144078,0.85931853,0.85931853,-0.51144078,0,0)" />
        <rect
           transform="matrix(-0.86319389,0.50487256,0.50487256,0.86319389,0,0)"
           inkscape:transform-center-y="-212.45538"
           inkscape:transform-center-x="367.24215"
           ry="4.6558599"
           rx="16"
           y="196.56657"
           x="1278.9845"
           height="20.268162"
           width="826.73938"
           id="rect4202"
           style="opacity:1;fill:#000000;fill-opacity:1;stroke:none;stroke-width:5;stroke-linecap:round;stroke-linejoin:round;stroke-miterlimit:4;stroke-dasharray:none;stroke-opacity:1" />
      </g>
      <path
         style="opacity:1;fill:#000000;fill-opacity:1;stroke:none;stroke-width:2.95216799;stroke-linecap:round;stroke-linejoin:round;stroke-miterlimit:4;stroke-dasharray:none;stroke-opacity:1"
         d="m -1105.8437,721.51802 c 4.2741,-3.02046 10.1465,-2.01125 13.167,2.26279 l 66.1998,93.67474 c 1.7151,2.42696 2.1277,5.36823 1.3842,8.01114 l 257.40356,29.54712 -407.19426,287.76359 45.9354,-241.57085 c -4.0299,1.77597 -8.8599,0.53688 -11.5042,-3.20488 l -66.1998,-93.67473 c -3.0204,-4.27405 -2.0112,-10.14651 2.2628,-13.16697 l 98.5455,-69.64195 z"
         id="path4204"
         inkscape:connector-curvature="0" />
      <ellipse
         transform="matrix(0.81431251,-0.58042669,0.65412253,0.7563886,0,0)"
         ry="85.256485"
         rx="253.50891"
         cy="272.72241"
         cx="-1396.7703"
         id="path4216"
         style="opacity:1;fill:#000000;fill-opacity:1;stroke:none;stroke-width:5;stroke-linecap:round;stroke-linejoin:round;stroke-miterlimit:4;stroke-dasharray:none;stroke-opacity:1" />
    </g>
  </g>
</svg>
